<svg xmlns="http://www.w3.org/2000/svg" width="450" viewBox="0 0 450 78.75" height="78.75" version="1.0"><defs><clipPath id="a"><path d="M 8.5625 10 L 449.285156 10 L 449.285156 78.5 L 8.5625 78.5 Z M 8.5625 10"/></clipPath><clipPath id="b"><path d="M 98 78 L 102 78 L 102 78.5 L 98 78.5 Z M 98 78"/></clipPath><clipPath id="c"><path d="M 109 78 L 111 78 L 111 78.5 L 109 78.5 Z M 109 78"/></clipPath><clipPath id="d"><path d="M 107 78 L 108 78 L 108 78.5 L 107 78.5 Z M 107 78"/></clipPath><clipPath id="e"><path d="M 101 78 L 103 78 L 103 78.5 L 101 78.5 Z M 101 78"/></clipPath></defs><g clip-path="url(#a)"><path fill="#287BA4" d="M 152.398438 45.933594 C 152.433594 46.039062 152.382812 46.054688 152.644531 46.019531 C 152.625 45.933594 152.679688 45.898438 152.398438 45.933594 Z M 86.53125 25.445312 C 86.390625 25.359375 86.460938 25.324219 86.148438 25.464844 C 86.25 25.464844 86.375 25.445312 86.53125 25.445312 Z M 81.492188 66.839844 C 81.492188 66.875 81.476562 66.910156 81.476562 66.960938 C 81.613281 66.960938 81.753906 66.980469 81.894531 66.996094 C 81.894531 66.960938 81.894531 66.910156 81.894531 66.875 C 81.769531 66.855469 81.632812 66.839844 81.492188 66.839844 Z M 443.214844 42.917969 C 443.214844 42.847656 443.214844 42.796875 443.214844 42.742188 C 443.023438 42.726562 442.832031 42.726562 442.636719 42.726562 C 442.671875 42.972656 442.570312 42.902344 443.214844 42.917969 Z M 50.859375 67.453125 C 50.859375 67.402344 50.859375 67.332031 50.859375 67.277344 C 50.355469 67.3125 50.25 67.402344 50.859375 67.453125 Z M 429.738281 46.476562 C 429.542969 46.214844 429.511719 46.285156 429.5625 46.546875 C 429.632812 46.511719 429.683594 46.492188 429.738281 46.476562 Z M 88.605469 70.519531 C 88.605469 70.539062 88.605469 70.574219 88.605469 70.609375 C 88.78125 70.609375 88.953125 70.609375 89.128906 70.609375 C 89.128906 70.589844 89.128906 70.554688 89.128906 70.519531 C 88.953125 70.519531 88.78125 70.519531 88.605469 70.519531 Z M 101.054688 66.789062 C 100.828125 66.699219 100.757812 66.71875 100.96875 66.945312 C 101 66.890625 101.035156 66.839844 101.054688 66.789062 Z M 107.503906 66.59375 C 107.382812 66.542969 107.417969 66.523438 107.332031 66.648438 C 107.402344 66.664062 107.453125 66.699219 107.503906 66.71875 C 107.503906 66.683594 107.503906 66.628906 107.503906 66.59375 Z M 134.058594 66.332031 C 134.007812 66.277344 133.972656 66.226562 133.917969 66.15625 C 133.882812 66.207031 133.832031 66.242188 133.78125 66.296875 C 133.972656 66.507812 133.902344 66.472656 134.058594 66.332031 Z M 52.550781 76.234375 C 52.515625 76.179688 52.464844 76.144531 52.410156 76.09375 C 52.339844 76.179688 52.324219 76.144531 52.480469 76.320312 C 52.496094 76.285156 52.53125 76.269531 52.550781 76.234375 Z M 85.152344 78.019531 C 85.152344 77.96875 85.152344 77.933594 85.152344 77.898438 C 85.015625 77.898438 84.875 77.914062 84.753906 77.914062 C 84.753906 77.949219 84.753906 77.96875 84.753906 78.003906 C 84.890625 78.003906 85.03125 78.003906 85.152344 78.019531 Z M 83.199219 63.71875 C 83.164062 63.738281 83.132812 63.753906 83.097656 63.773438 C 83.132812 63.808594 83.183594 63.859375 83.21875 63.894531 C 83.234375 63.859375 83.269531 63.824219 83.289062 63.808594 C 83.253906 63.773438 83.234375 63.753906 83.199219 63.71875 Z M 93.140625 66.855469 C 92.980469 67.136719 93.050781 67.15625 93.3125 66.980469 C 93.242188 66.945312 93.191406 66.890625 93.140625 66.855469 Z M 55.425781 41.902344 C 55.390625 41.832031 55.339844 41.761719 55.304688 41.691406 C 55.113281 41.917969 55.113281 41.832031 55.289062 42.058594 C 55.339844 42.007812 55.375 41.953125 55.425781 41.902344 Z M 397.640625 55.1875 C 397.640625 55.132812 397.621094 55.097656 397.621094 55.0625 C 397.359375 55.132812 397.414062 55.132812 397.429688 55.238281 C 397.5 55.222656 397.570312 55.203125 397.640625 55.1875 Z M 319.023438 52.523438 C 319.023438 52.539062 319.023438 52.574219 319.023438 52.59375 C 319.164062 52.609375 319.304688 52.609375 319.460938 52.609375 C 319.460938 52.574219 319.460938 52.558594 319.460938 52.523438 C 319.304688 52.523438 319.164062 52.523438 319.023438 52.523438 Z M 42.890625 42.65625 C 43.222656 42.902344 43.066406 42.917969 43.464844 42.65625 C 43.308594 42.65625 43.171875 42.65625 42.890625 42.65625 Z M 60.046875 59.742188 C 60.101562 59.691406 60.152344 59.65625 60.222656 59.601562 C 59.890625 59.410156 59.976562 59.425781 59.855469 59.636719 C 59.925781 59.671875 59.976562 59.707031 60.046875 59.742188 Z M 44.652344 42.445312 C 44.652344 42.535156 44.667969 42.601562 44.667969 42.691406 C 44.828125 42.65625 44.964844 42.621094 45.105469 42.585938 C 45.105469 42.535156 45.089844 42.480469 45.089844 42.429688 C 44.929688 42.429688 44.792969 42.429688 44.652344 42.445312 Z M 400.671875 55.605469 C 400.621094 55.292969 400.550781 55.359375 400.464844 55.605469 C 400.53125 55.605469 400.601562 55.605469 400.671875 55.605469 Z M 35.570312 42.882812 C 35.550781 42.902344 35.515625 42.917969 35.480469 42.953125 C 35.671875 43.148438 35.65625 43.09375 35.726562 43.023438 C 35.671875 42.972656 35.621094 42.9375 35.570312 42.882812 Z M 77.082031 59.917969 C 77.308594 59.707031 77.273438 59.792969 77.097656 59.585938 C 76.871094 59.792969 76.90625 59.707031 77.082031 59.917969 Z M 380.847656 20.820312 C 380.832031 20.75 380.832031 20.679688 380.8125 20.609375 C 380.570312 20.664062 380.324219 20.699219 380.097656 20.734375 C 380.097656 20.804688 380.117188 20.871094 380.117188 20.941406 C 380.359375 20.90625 380.605469 20.871094 380.847656 20.820312 Z M 45.488281 68.90625 C 45.4375 68.871094 45.367188 68.835938 45.316406 68.785156 C 45.175781 69.066406 45.246094 69.101562 45.488281 68.90625 Z M 371.363281 64.683594 C 371.382812 64.683594 371.382812 64.667969 371.382812 64.632812 C 371.328125 64.648438 371.191406 64.613281 371.15625 64.683594 C 371.226562 64.683594 371.292969 64.683594 371.363281 64.683594 Z M 120.476562 17.71875 C 120.492188 17.769531 120.492188 17.839844 120.492188 17.910156 C 121.050781 17.859375 121.050781 17.753906 120.476562 17.71875 Z M 168.980469 18.789062 C 169.121094 18.894531 169.066406 18.925781 169.328125 18.71875 C 169.222656 18.753906 169.121094 18.769531 168.980469 18.789062 Z M 160.351562 19.945312 C 160.175781 19.679688 160.105469 19.679688 160.140625 19.980469 C 160.210938 19.980469 160.28125 19.960938 160.351562 19.945312 Z M 140.039062 22.609375 C 140.019531 22.554688 140.019531 22.484375 140.003906 22.433594 C 139.8125 22.449219 139.621094 22.484375 139.429688 22.503906 C 139.429688 22.519531 139.429688 22.554688 139.429688 22.589844 C 139.636719 22.589844 139.828125 22.589844 140.039062 22.609375 Z M 43.046875 35.226562 C 43.398438 34.648438 43.101562 34.578125 42.699219 34.859375 C 42.804688 34.960938 42.890625 35.066406 43.046875 35.226562 Z M 24.480469 41.988281 C 24.742188 42.148438 24.65625 42.148438 24.8125 41.917969 C 24.550781 41.78125 24.636719 41.78125 24.480469 41.988281 Z M 95.457031 67.4375 C 95.285156 67.609375 95.265625 67.539062 95.457031 67.734375 C 95.527344 67.664062 95.578125 67.59375 95.632812 67.523438 C 95.578125 67.488281 95.511719 67.453125 95.457031 67.4375 Z M 34.3125 42.8125 C 34.277344 42.882812 34.242188 42.9375 34.191406 43.007812 C 34.433594 43.128906 34.347656 43.148438 34.503906 42.917969 C 34.453125 42.882812 34.382812 42.847656 34.3125 42.8125 Z M 149.835938 46.214844 C 149.855469 46.285156 149.871094 46.355469 149.871094 46.421875 C 150.027344 46.386719 150.1875 46.355469 150.359375 46.320312 C 150.289062 46.039062 150.394531 46.074219 149.835938 46.214844 Z M 123.738281 48.035156 C 123.738281 47.964844 123.71875 47.894531 123.71875 47.824219 C 123.527344 47.84375 123.351562 47.859375 123.160156 47.894531 C 123.179688 47.949219 123.179688 48 123.195312 48.070312 C 123.371094 48.054688 123.5625 48.054688 123.738281 48.035156 Z M 117.355469 48.597656 C 117.214844 48.386719 117.304688 48.402344 117.007812 48.472656 C 117.148438 48.683594 117.058594 48.683594 117.355469 48.597656 Z M 13.007812 46.597656 C 13.027344 46.703125 13.027344 46.792969 13.027344 46.898438 C 13.269531 46.863281 13.496094 46.84375 13.742188 46.808594 C 13.742188 46.738281 13.722656 46.667969 13.722656 46.597656 C 13.496094 46.597656 13.253906 46.597656 13.007812 46.597656 Z M 341.898438 63.527344 C 341.898438 63.511719 341.898438 63.476562 341.898438 63.457031 C 341.742188 63.457031 341.585938 63.457031 341.445312 63.457031 C 341.445312 63.476562 341.429688 63.492188 341.429688 63.511719 C 341.585938 63.511719 341.742188 63.511719 341.898438 63.527344 Z M 268.65625 62.808594 C 268.707031 62.757812 268.777344 62.722656 268.828125 62.667969 C 268.707031 62.582031 268.691406 62.617188 268.515625 62.667969 C 268.550781 62.722656 268.601562 62.757812 268.65625 62.808594 Z M 321.066406 72.957031 C 321.046875 72.867188 321.03125 72.796875 321.011719 72.710938 C 320.839844 72.78125 320.664062 72.851562 320.507812 72.921875 C 320.523438 72.972656 320.542969 73.027344 320.542969 73.078125 C 320.714844 73.042969 320.890625 72.992188 321.066406 72.957031 Z M 61.84375 60.8125 C 61.84375 60.847656 61.84375 60.882812 61.84375 60.917969 C 62.035156 60.917969 62.210938 60.917969 62.402344 60.898438 C 62.402344 60.882812 62.402344 60.847656 62.402344 60.8125 C 62.210938 60.8125 62.035156 60.8125 61.84375 60.8125 Z M 257.847656 65.507812 C 258.175781 65.226562 258.089844 65.296875 258.003906 65.105469 C 257.65625 65.332031 257.722656 65.261719 257.847656 65.507812 Z M 108.550781 66.523438 C 108.289062 66.347656 108.375 66.367188 108.21875 66.578125 C 108.480469 66.753906 108.394531 66.734375 108.550781 66.523438 Z M 17.402344 70.484375 C 17.402344 70.574219 17.382812 70.640625 17.382812 70.730469 C 17.558594 70.746094 17.75 70.746094 17.925781 70.746094 C 17.941406 70.710938 17.941406 70.660156 17.941406 70.625 C 17.769531 70.574219 17.574219 70.539062 17.402344 70.484375 Z M 348.75 76.96875 C 348.59375 77.195312 348.59375 77.109375 348.75 77.320312 C 348.804688 77.25 348.875 77.160156 348.925781 77.089844 C 348.875 77.054688 348.804688 77.003906 348.75 76.96875 Z M 76.175781 65.964844 C 76.382812 66.226562 76.261719 66.207031 76.558594 66.035156 C 76.453125 66.015625 76.332031 65.980469 76.175781 65.964844 Z M 103.984375 66.890625 C 103.757812 66.59375 103.632812 66.71875 103.6875 67.050781 C 103.773438 66.996094 103.878906 66.945312 103.984375 66.890625 Z M 192.65625 19.417969 C 192.414062 19.3125 192.5 19.296875 192.34375 19.507812 C 192.585938 19.628906 192.5 19.644531 192.65625 19.417969 Z M 116.816406 17.945312 C 116.816406 18.015625 116.816406 18.070312 116.816406 18.121094 C 116.988281 18.121094 117.179688 18.105469 117.355469 18.105469 C 117.355469 18.050781 117.355469 18 117.355469 17.945312 C 117.164062 17.945312 116.988281 17.945312 116.816406 17.945312 Z M 155.417969 21.589844 C 155.433594 21.539062 155.433594 21.484375 155.433594 21.433594 C 154.875 21.257812 155.085938 21.277344 154.703125 21.484375 C 154.71875 21.519531 154.734375 21.574219 154.753906 21.625 C 154.980469 21.609375 155.191406 21.609375 155.417969 21.589844 Z M 401.28125 27.304688 C 401.230469 27.425781 401.195312 27.550781 401.160156 27.671875 C 401.421875 27.742188 401.683594 27.8125 401.945312 27.882812 C 401.980469 27.777344 401.996094 27.691406 402.03125 27.601562 C 401.769531 27.496094 401.527344 27.390625 401.28125 27.304688 Z M 295.695312 64.703125 C 295.75 64.667969 295.820312 64.648438 295.890625 64.613281 C 295.855469 64.542969 295.820312 64.492188 295.785156 64.421875 C 295.714844 64.472656 295.628906 64.527344 295.539062 64.5625 C 295.59375 64.613281 295.644531 64.667969 295.695312 64.703125 Z M 56.820312 60.128906 C 56.71875 59.898438 56.820312 59.882812 56.402344 60.003906 C 56.492188 60.179688 56.386719 60.214844 56.820312 60.128906 Z M 71.222656 76.128906 C 71.1875 76.164062 71.136719 76.214844 71.082031 76.25 C 71.171875 76.390625 71.273438 76.511719 71.378906 76.652344 C 71.414062 76.601562 71.46875 76.566406 71.519531 76.53125 C 71.433594 76.390625 71.328125 76.25 71.222656 76.128906 Z M 40.398438 42.429688 C 40.3125 42.535156 40.242188 42.621094 40.152344 42.707031 C 40.292969 42.8125 40.433594 42.917969 40.574219 43.023438 C 40.640625 42.9375 40.710938 42.867188 40.78125 42.777344 C 40.640625 42.671875 40.519531 42.550781 40.398438 42.429688 Z M 87.070312 75.863281 C 87.070312 75.917969 87.054688 75.988281 87.054688 76.058594 C 87.226562 76.074219 87.402344 76.109375 87.59375 76.128906 C 87.59375 76.058594 87.613281 75.988281 87.613281 75.917969 C 87.4375 75.898438 87.246094 75.882812 87.070312 75.863281 Z M 404.753906 55.414062 C 404.753906 55.484375 404.753906 55.554688 404.753906 55.605469 C 404.910156 55.640625 405.082031 55.660156 405.242188 55.675781 C 405.242188 55.554688 405.242188 55.449219 405.257812 55.34375 C 405.082031 55.359375 404.925781 55.394531 404.753906 55.414062 Z M 351.054688 77.53125 C 351.035156 77.636719 351.019531 77.738281 351 77.84375 C 351.175781 77.828125 351.347656 77.828125 351.523438 77.808594 C 351.488281 77.496094 351.59375 77.582031 351.054688 77.53125 Z M 399.136719 57.203125 C 399.136719 57.203125 399.136719 57.183594 399.136719 57.167969 C 398.910156 57.167969 398.683594 57.148438 398.441406 57.148438 C 398.441406 57.167969 398.441406 57.183594 398.441406 57.203125 C 398.683594 57.203125 398.910156 57.203125 399.136719 57.203125 Z M 324.707031 56.449219 C 324.726562 56.34375 324.742188 56.253906 324.761719 56.148438 C 323.960938 56.097656 323.925781 56.253906 324.707031 56.449219 Z M 77.273438 68.3125 C 77.273438 68.257812 77.273438 68.207031 77.289062 68.152344 C 77.0625 68.136719 76.835938 68.117188 76.609375 68.101562 C 76.59375 68.152344 76.59375 68.222656 76.59375 68.292969 C 76.820312 68.292969 77.046875 68.292969 77.273438 68.3125 Z M 97.566406 41.851562 C 97.566406 41.816406 97.566406 41.78125 97.566406 41.746094 C 97.339844 41.746094 97.113281 41.746094 96.886719 41.746094 C 96.871094 41.761719 96.871094 41.78125 96.871094 41.796875 C 97.113281 41.816406 97.339844 41.832031 97.566406 41.851562 Z M 82.851562 72.675781 C 82.851562 72.605469 82.851562 72.535156 82.851562 72.464844 C 82.589844 72.464844 82.3125 72.464844 82.03125 72.449219 C 82.03125 72.535156 82.03125 72.621094 82.03125 72.691406 C 82.3125 72.691406 82.589844 72.675781 82.851562 72.675781 Z M 27.878906 52.699219 C 27.410156 52.488281 27.566406 52.46875 27.339844 52.800781 C 27.6875 53.066406 27.546875 53.066406 27.878906 52.699219 Z M 102.917969 46.6875 C 102.917969 46.597656 102.9375 46.511719 102.953125 46.421875 C 102.761719 46.421875 102.570312 46.40625 102.378906 46.40625 C 102.378906 46.457031 102.378906 46.511719 102.378906 46.546875 C 102.554688 46.597656 102.726562 46.632812 102.917969 46.6875 Z M 114.480469 17.964844 C 114.914062 18.277344 114.722656 18.3125 115.175781 17.980469 C 115.003906 17.980469 114.828125 17.980469 114.480469 17.964844 Z M 45.054688 60.039062 C 45.054688 60.023438 45.054688 60.003906 45.054688 59.96875 C 44.757812 59.96875 44.476562 59.96875 44.179688 59.953125 C 44.179688 60.003906 44.179688 60.039062 44.179688 60.09375 C 44.476562 60.074219 44.773438 60.058594 45.054688 60.039062 Z M 63.253906 40.675781 C 63.273438 40.746094 63.273438 40.816406 63.273438 40.886719 C 63.445312 40.867188 63.640625 40.867188 63.8125 40.851562 C 63.796875 40.746094 63.777344 40.640625 63.742188 40.535156 C 63.585938 40.589844 63.429688 40.621094 63.253906 40.675781 Z M 343.207031 73.0625 C 343.207031 73.027344 343.207031 72.972656 343.207031 72.9375 C 342.894531 72.9375 342.578125 72.9375 342.023438 72.921875 C 342.578125 72.992188 342.894531 73.027344 343.207031 73.0625 Z M 391.378906 43.269531 C 391.292969 43.390625 391.222656 43.480469 391.152344 43.566406 C 391.34375 43.691406 391.242188 43.742188 391.625 43.515625 C 391.554688 43.445312 391.484375 43.375 391.378906 43.269531 Z M 82.171875 67.925781 C 82.207031 68.03125 82.242188 68.117188 82.277344 68.222656 C 82.433594 68.136719 82.609375 68.03125 82.765625 67.945312 C 82.746094 67.875 82.710938 67.820312 82.695312 67.75 C 82.519531 67.804688 82.347656 67.875 82.171875 67.925781 Z M 89.40625 71.90625 C 89.40625 71.992188 89.390625 72.078125 89.390625 72.183594 C 89.632812 72.183594 89.894531 72.183594 90.140625 72.203125 C 90.140625 72.132812 90.140625 72.078125 90.140625 72.007812 C 89.894531 71.972656 89.652344 71.9375 89.40625 71.90625 Z M 59.890625 41.65625 C 59.839844 41.535156 59.804688 41.429688 59.769531 41.304688 C 59.558594 41.410156 59.351562 41.5 59.15625 41.605469 C 59.175781 41.675781 59.210938 41.746094 59.226562 41.816406 C 59.453125 41.761719 59.664062 41.710938 59.890625 41.65625 Z M 119.867188 66.367188 C 119.550781 65.980469 119.710938 65.980469 119.324219 66.207031 C 119.570312 66.59375 119.429688 66.523438 119.867188 66.367188 Z M 360.347656 78.582031 C 360.347656 78.652344 360.363281 78.722656 360.363281 78.792969 C 360.710938 78.773438 361.042969 78.757812 361.375 78.722656 C 361.09375 78.527344 360.660156 78.386719 360.347656 78.582031 Z M 438.664062 48.5625 C 438.664062 48.597656 438.644531 48.632812 438.644531 48.648438 C 438.925781 48.667969 439.203125 48.667969 439.464844 48.667969 C 439.464844 48.667969 439.464844 48.648438 439.464844 48.632812 C 439.203125 48.613281 438.925781 48.597656 438.664062 48.5625 Z M 441.976562 45.355469 C 441.992188 45.25 442.027344 45.125 442.0625 45.023438 C 440.980469 44.828125 441.242188 44.8125 441 45.265625 C 441.367188 45.300781 441.660156 45.335938 441.976562 45.355469 Z M 15.605469 63.773438 C 15.65625 63.703125 15.710938 63.632812 15.761719 63.582031 C 14.804688 62.949219 15.066406 63.019531 14.699219 63.371094 C 15.046875 63.527344 15.328125 63.648438 15.605469 63.773438 Z M 243.898438 14.457031 C 244.699219 14.96875 244.402344 14.914062 244.996094 14.722656 C 244.980469 14.667969 244.980469 14.597656 244.960938 14.527344 C 244.699219 14.511719 244.457031 14.492188 243.898438 14.457031 Z M 392.652344 64.472656 C 392.148438 64.789062 391.867188 64.964844 391.449219 65.210938 C 392.148438 65.59375 392.390625 65.316406 392.652344 64.472656 Z M 409.09375 35.261719 C 409.25 36.257812 409.6875 36.050781 410.382812 35.820312 C 409.859375 35.59375 409.566406 35.472656 409.09375 35.261719 Z M 341.515625 74.515625 C 341.0625 74.289062 341.238281 74.269531 340.855469 74.496094 C 341.167969 74.917969 340.992188 74.867188 341.515625 74.515625 Z M 279.03125 64.929688 C 279.046875 64.84375 279.046875 64.753906 279.0625 64.667969 C 278.835938 64.648438 278.628906 64.648438 278.402344 64.648438 C 278.402344 64.71875 278.402344 64.789062 278.402344 64.859375 C 278.609375 64.894531 278.820312 64.910156 279.03125 64.929688 Z M 373.335938 68.59375 C 373.667969 67.523438 373.648438 67.488281 372.863281 67.226562 C 373.003906 67.644531 373.125 67.980469 373.335938 68.59375 Z M 102.449219 43.726562 C 102.429688 43.636719 102.414062 43.53125 102.378906 43.445312 C 102.101562 43.53125 101.804688 43.601562 101.523438 43.691406 C 101.523438 43.742188 101.542969 43.796875 101.558594 43.863281 C 101.855469 43.8125 102.152344 43.761719 102.449219 43.726562 Z M 140.316406 43.355469 C 140.316406 43.425781 140.316406 43.515625 140.335938 43.585938 C 140.71875 43.585938 141.121094 43.566406 141.503906 43.550781 C 141.503906 43.445312 141.503906 43.355469 141.484375 43.269531 C 141.101562 43.304688 140.699219 43.320312 140.316406 43.355469 Z M 346.398438 56.796875 C 346.398438 56.851562 346.414062 56.902344 346.414062 56.957031 C 346.765625 56.972656 347.113281 56.972656 347.460938 56.992188 C 347.460938 56.957031 347.460938 56.9375 347.460938 56.902344 C 347.113281 56.867188 346.765625 56.832031 346.398438 56.796875 Z M 441.644531 53.75 C 441.644531 53.785156 441.644531 53.835938 441.644531 53.871094 C 442.183594 53.890625 442.742188 53.90625 443.300781 53.90625 C 443.300781 53.871094 443.300781 53.820312 443.300781 53.785156 C 442.742188 53.765625 442.203125 53.765625 441.644531 53.75 Z M 102.78125 66.855469 C 102.78125 66.753906 102.796875 66.664062 102.816406 66.558594 C 102.605469 66.558594 102.398438 66.558594 102.171875 66.542969 C 102.171875 66.628906 102.171875 66.699219 102.171875 66.769531 C 102.363281 66.804688 102.570312 66.820312 102.78125 66.855469 Z M 87.402344 72.148438 C 87.386719 72.238281 87.367188 72.308594 87.351562 72.394531 C 87.542969 72.394531 87.714844 72.394531 87.890625 72.378906 C 87.890625 72.324219 87.890625 72.253906 87.890625 72.183594 C 87.734375 72.183594 87.558594 72.167969 87.402344 72.148438 Z M 81.109375 68.363281 C 81.109375 68.277344 81.109375 68.207031 81.089844 68.117188 C 80.8125 68.136719 80.535156 68.152344 80.253906 68.171875 C 80.253906 68.222656 80.253906 68.277344 80.253906 68.347656 C 80.550781 68.347656 80.828125 68.347656 81.109375 68.363281 Z M 18.308594 62.828125 C 18.867188 63.386719 18.867188 63.386719 19.582031 63.105469 C 19.074219 63 18.691406 62.914062 18.308594 62.828125 Z M 48.90625 68.996094 C 48.714844 69.207031 48.644531 69.292969 48.574219 69.363281 C 48.679688 69.449219 48.765625 69.539062 48.871094 69.625 C 49.117188 69.277344 49.082031 69.449219 48.90625 68.996094 Z M 182.144531 44.460938 C 182.160156 44.546875 182.160156 44.617188 182.179688 44.6875 C 182.578125 44.601562 182.964844 44.496094 183.363281 44.410156 C 183.363281 44.355469 183.347656 44.320312 183.347656 44.285156 C 182.945312 44.339844 182.542969 44.410156 182.144531 44.460938 Z M 439.605469 45.335938 C 439.902344 45.355469 441.085938 45.460938 440.667969 45.003906 C 440.40625 44.707031 440.109375 44.652344 439.605469 45.335938 Z M 10.585938 47.789062 C 10.550781 47.878906 10.515625 47.984375 10.460938 48.089844 C 10.671875 48.140625 10.882812 48.195312 11.089844 48.246094 C 11.109375 48.175781 11.125 48.105469 11.140625 48.035156 C 10.949219 47.949219 10.777344 47.859375 10.585938 47.789062 Z M 127.484375 65.421875 C 127.3125 65.558594 127.222656 65.628906 127.136719 65.699219 C 127.242188 65.859375 127.347656 66.015625 127.46875 66.171875 C 127.730469 65.824219 127.746094 66.015625 127.484375 65.421875 Z M 108.96875 19.402344 C 108.953125 19.507812 108.953125 19.609375 108.933594 19.714844 C 109.386719 19.785156 109.839844 19.839844 110.277344 19.910156 C 110.292969 19.820312 110.292969 19.714844 110.3125 19.628906 C 109.859375 19.558594 109.421875 19.488281 108.96875 19.402344 Z M 219.976562 14.582031 C 220.011719 15.738281 221.042969 15.054688 220.867188 14.738281 C 220.640625 14.300781 220.308594 14.425781 219.976562 14.582031 Z M 305.496094 78.214844 C 306.246094 78.5625 306.246094 78.5625 306.804688 78.074219 C 306.316406 78.125 305.984375 78.160156 305.496094 78.214844 Z M 69.742188 73.0625 C 69.757812 73.167969 69.777344 73.289062 69.792969 73.394531 C 70.230469 73.324219 70.664062 73.269531 71.117188 73.199219 C 71.101562 73.097656 71.082031 72.972656 71.066406 72.867188 C 70.628906 72.9375 70.175781 73.007812 69.742188 73.0625 Z M 105.867188 66.925781 C 105.308594 66.472656 105.535156 66.488281 104.996094 66.769531 C 105.484375 67.347656 105.273438 67.261719 105.867188 66.925781 Z M 431.515625 40.902344 C 430.90625 40.589844 430.90625 40.589844 430.207031 41.042969 C 430.816406 40.992188 431.167969 40.957031 431.515625 40.902344 Z M 443.964844 53.03125 C 443.964844 52.90625 443.964844 52.785156 443.964844 52.679688 C 443.613281 52.417969 443.265625 52.382812 442.742188 52.996094 C 443.300781 53.011719 443.632812 53.011719 443.964844 53.03125 Z M 237.046875 14.300781 C 237.046875 14.160156 237.027344 14.019531 237.027344 13.878906 C 236.488281 13.828125 235.949219 13.84375 235.425781 14.265625 C 235.964844 14.265625 236.503906 14.285156 237.046875 14.300781 Z M 91.902344 67.820312 C 92.597656 68.363281 92.597656 68.363281 93 67.679688 C 92.617188 67.714844 92.285156 67.769531 91.902344 67.820312 Z M 64.945312 73.480469 C 64.003906 73.113281 64.003906 73.113281 63.726562 73.761719 C 64.109375 73.65625 64.421875 73.585938 64.945312 73.480469 Z M 85.398438 72.0625 C 83.8125 72.289062 84.140625 72.148438 83.933594 72.429688 C 84.527344 72.621094 84.527344 72.621094 85.398438 72.0625 Z M 338.238281 74.148438 C 338.5 74.480469 338.484375 74.636719 339.109375 74.726562 C 339.128906 74.726562 339.25 74.429688 339.214844 74.410156 C 338.710938 73.972656 338.550781 74.113281 338.238281 74.148438 Z M 436.449219 41.375 C 435.996094 40.691406 435.59375 41.289062 435.140625 41.359375 C 435.578125 41.359375 436.03125 41.375 436.449219 41.375 Z M 116.570312 47.386719 C 117.355469 47.703125 117.355469 47.683594 117.949219 47.230469 C 117.476562 47.28125 117.023438 47.335938 116.570312 47.386719 Z M 413.136719 45.144531 C 413.15625 45.058594 413.171875 44.988281 413.171875 44.917969 C 412.546875 44.671875 412.84375 44.671875 412.09375 44.863281 C 412.09375 44.917969 412.109375 45.003906 412.128906 45.074219 C 412.457031 45.09375 412.808594 45.109375 413.136719 45.144531 Z M 388.574219 21.347656 C 387.335938 20.925781 387.335938 20.925781 386.707031 21.3125 C 387.441406 21.328125 387.996094 21.347656 388.574219 21.347656 Z M 113.257812 20.679688 C 113.242188 20.804688 113.207031 20.925781 113.1875 21.03125 C 113.957031 21.1875 113.800781 21.222656 113.867188 20.804688 C 113.675781 20.769531 113.46875 20.714844 113.257812 20.679688 Z M 74.882812 73.167969 C 74.132812 72.691406 74.132812 72.691406 73.769531 73.148438 C 74.167969 73.148438 74.519531 73.167969 74.882812 73.167969 Z M 211.453125 14.722656 C 212.097656 15.019531 212.742188 15.421875 213.371094 14.652344 C 212.722656 14.667969 212.097656 14.703125 211.453125 14.722656 Z M 409.078125 57.132812 C 408.570312 56.570312 408.117188 56.675781 407.679688 57.113281 C 408.152344 57.113281 408.605469 57.132812 409.078125 57.132812 Z M 93.800781 71.746094 C 93.800781 71.816406 93.785156 71.886719 93.785156 71.972656 C 94.253906 71.972656 94.707031 71.992188 95.179688 71.992188 C 95.179688 71.921875 95.179688 71.851562 95.179688 71.765625 C 94.726562 71.765625 94.273438 71.746094 93.800781 71.746094 Z M 407.714844 45.320312 C 408.554688 45.039062 409.214844 44.8125 410.050781 44.511719 C 409.128906 44.511719 408.414062 44.460938 407.714844 45.320312 Z M 227.894531 15.371094 C 227.597656 15.003906 227.351562 14.667969 227.109375 14.355469 C 226.847656 14.546875 226.621094 14.722656 226.464844 14.84375 C 226.8125 15.859375 227.371094 15.441406 227.894531 15.371094 Z M 336.304688 73.445312 C 336.164062 75.007812 336.304688 75.234375 337.175781 74.867188 C 336.894531 74.429688 336.652344 74.007812 336.304688 73.445312 Z M 116.363281 66.453125 C 115.28125 65.964844 115.175781 66.015625 114.949219 67.191406 C 115.386719 66.960938 115.785156 66.753906 116.363281 66.453125 Z M 153.792969 19.910156 C 154.386719 19.609375 155.015625 20.609375 155.695312 19.804688 C 154.980469 19.472656 154.386719 19.382812 153.792969 19.910156 Z M 105.691406 76.847656 C 105.691406 76.988281 105.691406 77.109375 105.691406 77.25 C 107.609375 77.285156 107.503906 77.335938 107.835938 76.652344 C 107.085938 76.722656 106.390625 76.792969 105.691406 76.847656 Z M 72.445312 68.628906 C 73.140625 68.941406 73.140625 68.941406 73.941406 68.417969 C 73.070312 68.171875 73.070312 68.171875 72.445312 68.628906 Z M 433.710938 53.996094 C 434.671875 54.097656 435.628906 54.222656 436.605469 54.328125 C 436.605469 54.238281 436.625 54.152344 436.625 54.0625 C 435.664062 53.871094 434.722656 53.382812 433.710938 53.996094 Z M 80.691406 72.832031 C 80.691406 72.726562 80.691406 72.621094 80.707031 72.535156 C 79.820312 72.359375 78.929688 72.253906 78.058594 72.78125 C 78.929688 72.796875 79.800781 72.816406 80.691406 72.832031 Z M 73.105469 76.058594 C 73.105469 76.164062 73.089844 76.269531 73.089844 76.390625 C 73.558594 76.757812 74.101562 76.882812 74.65625 76.636719 C 74.78125 76.601562 74.796875 76.304688 74.9375 75.96875 C 74.222656 76.003906 73.664062 76.023438 73.105469 76.058594 Z M 91.152344 68.1875 C 91.34375 67.59375 91.464844 67.171875 90.890625 66.753906 C 90.59375 67.242188 89.84375 67.242188 89.878906 68.171875 C 90.3125 68.171875 90.699219 68.1875 91.152344 68.1875 Z M 333.933594 73.726562 C 334.210938 74.621094 334.734375 75.25 335.65625 75.445312 C 335.5 74.324219 334.699219 74.023438 333.933594 73.726562 Z M 63.640625 70.308594 C 65.539062 70.449219 64.875 70.574219 66.0625 69.625 C 65.488281 69.292969 64.230469 69.347656 63.640625 70.308594 Z M 264.246094 64.824219 C 265.414062 65.492188 266.71875 65.507812 267.785156 64.910156 C 266.511719 64.878906 265.378906 64.859375 264.246094 64.824219 Z M 21.167969 71.429688 C 19.703125 71.394531 18.394531 71.359375 17.105469 71.34375 C 17.085938 71.464844 17.085938 71.570312 17.085938 71.695312 C 17.820312 71.871094 20.488281 72.308594 21.167969 71.429688 Z M 52.96875 77.933594 C 53.894531 78.019531 54.78125 78.109375 55.636719 78.195312 C 55.289062 77.757812 54.972656 77.390625 54.660156 77.003906 C 53.578125 77.160156 53.578125 77.160156 52.96875 77.933594 Z M 30.128906 62.652344 C 28.351562 62.109375 27.148438 62.074219 26.539062 62.582031 C 27.757812 63.5625 28.945312 62.773438 30.128906 62.652344 Z M 253.191406 64.667969 C 253.171875 64.808594 253.15625 64.945312 253.121094 65.085938 C 256.589844 65.628906 255.824219 65.558594 256.46875 65.367188 C 255.40625 64.230469 254.238281 64.878906 253.191406 64.667969 Z M 60.65625 77.582031 C 62.191406 77.984375 63.671875 77.25 65.191406 77.285156 C 63.621094 76.441406 62.175781 77.636719 60.65625 77.582031 Z M 58.390625 73.535156 C 59.351562 74.339844 58.460938 74.304688 61.738281 73.832031 C 60.691406 73.042969 59.679688 73.429688 58.390625 73.535156 Z M 52.96875 69.765625 C 52.289062 69.082031 51.992188 68.59375 51.921875 68.117188 C 50.945312 68.152344 51.085938 68.960938 50.929688 69.730469 C 51.589844 69.75 52.167969 69.75 52.96875 69.765625 Z M 258.980469 64.738281 C 258.960938 64.84375 258.945312 64.945312 258.925781 65.035156 C 260.304688 65.875 262.203125 64.929688 262.5 64.613281 C 261.332031 64.648438 260.148438 64.703125 258.980469 64.738281 Z M 221.269531 14.492188 C 221.269531 14.617188 221.269531 14.738281 221.269531 14.863281 C 222.226562 15.089844 223.167969 15.316406 224.214844 15.582031 C 224.40625 15.195312 224.597656 14.773438 224.789062 14.371094 C 224.738281 14.265625 224.703125 14.160156 224.648438 14.054688 C 223.550781 14.597656 222.347656 13.722656 221.269531 14.492188 Z M 56.855469 77.019531 C 57.535156 78.511719 59.261719 77.984375 59.453125 77.667969 C 59.925781 76.828125 60.273438 77.160156 61.597656 76.847656 C 60.238281 75.882812 58.808594 77.195312 57.660156 76.25 C 57.398438 76.511719 57.152344 76.742188 56.855469 77.019531 Z M 269.351562 65.402344 C 276.1875 64.910156 275.996094 65.316406 277.441406 64.738281 C 270.871094 64.597656 270.382812 64.351562 269.351562 65.402344 Z M 244.542969 15.28125 C 244.074219 15.230469 243.671875 15.195312 243.375 15.160156 C 243.113281 14.6875 242.886719 14.265625 242.484375 13.53125 C 241.824219 15.316406 240.359375 14.089844 239.46875 14.914062 C 239.820312 16.125 240.691406 15.773438 244.542969 15.28125 Z M 83.601562 67.59375 C 83.601562 67.699219 83.585938 67.820312 83.585938 67.945312 C 84.648438 69.066406 86.285156 67.46875 87.679688 68.3125 C 88.152344 68.59375 88.691406 68.609375 89.25 68.152344 C 86.269531 65.296875 89.582031 67.503906 83.601562 67.59375 Z M 25.996094 54.363281 C 26.503906 52.871094 26.886719 53.066406 25.628906 52.574219 C 25.210938 52.417969 21.308594 51.910156 21.21875 53.3125 C 21.8125 53.328125 22.40625 53.347656 23 53.347656 C 23.242188 53.679688 23.503906 53.996094 23.730469 54.257812 C 24.53125 54.222656 25.210938 53.433594 25.996094 54.363281 Z M 87.28125 24.535156 C 88.328125 24.464844 111.601562 22.554688 112.753906 21.714844 C 112.648438 21.453125 112.542969 21.1875 112.472656 21.046875 C 111.394531 20.890625 110.417969 20.75 109.441406 20.609375 C 108.535156 20.46875 107.558594 21.101562 106.527344 20.347656 C 106.878906 20.15625 107.121094 20.03125 107.382812 19.890625 C 105.953125 19.644531 104.542969 19.402344 103.09375 20.121094 C 102.710938 18.996094 101.28125 19.839844 98.457031 19.207031 C 105.097656 19.347656 104.507812 19.664062 104.574219 18.226562 C 105.132812 17.945312 105.710938 17.734375 106.335938 18.085938 C 106.300781 18.3125 106.285156 18.507812 106.230469 18.824219 C 106.753906 18.804688 107.226562 18.804688 107.886719 18.769531 C 107.558594 18.542969 107.402344 18.417969 107.171875 18.246094 C 107.382812 18.085938 107.558594 17.945312 107.800781 17.734375 C 107.347656 17.5625 106.929688 17.402344 106.25 17.140625 C 107.3125 16.808594 118.417969 17.5625 119.167969 18.226562 C 119.132812 18 119.097656 17.789062 119.046875 17.457031 C 119.988281 17.015625 120.929688 16.753906 121.90625 17.699219 C 121.976562 17.4375 122.027344 17.28125 122.117188 16.929688 C 178.484375 17.28125 193.597656 13.546875 206.847656 14.355469 C 206.167969 14.371094 205.472656 14.390625 204.722656 14.425781 C 205 15.492188 206.8125 14.265625 209.742188 15.019531 C 210.09375 15.105469 210.546875 14.722656 210.964844 14.582031 C 214.835938 13.195312 216.71875 15.039062 217.851562 13.441406 C 217.851562 13.441406 225.816406 13.496094 225.835938 13.496094 C 232.148438 13.511719 230.054688 13.25 230.960938 14.632812 C 230.59375 14.722656 230.125 14.828125 229.515625 14.96875 C 230.210938 15.492188 230.875 14.984375 231.433594 15.300781 C 231.695312 15.003906 231.921875 14.722656 232.320312 14.230469 C 232.339844 14.722656 232.339844 14.933594 232.355469 15.246094 C 234.449219 15.597656 236.558594 15.6875 238.632812 14.808594 C 232.929688 15.074219 236.347656 15.246094 231.570312 13.792969 C 235.441406 12.039062 239.070312 15.632812 241.40625 13.914062 C 240.761719 13.808594 240.324219 13.742188 239.886719 13.671875 L 239.886719 13.6875 C 240.148438 12.671875 240.585938 14.019531 242.625 13.164062 C 243.707031 12.722656 247.699219 13.511719 247.996094 13.652344 C 246.148438 13.617188 245.066406 13.546875 244.003906 13.757812 C 259.277344 18.59375 330.652344 11.53125 331.421875 10.972656 C 334.941406 11.515625 339.773438 9.042969 340.625 11.898438 C 349.65625 12.847656 348.820312 12.671875 349.5 13.722656 C 349.640625 13.617188 349.78125 13.511719 349.902344 13.40625 C 350.214844 13.757812 350.371094 14.6875 350.964844 13.914062 C 352.902344 14.582031 354.835938 15.003906 357.03125 15.457031 C 356.5625 15.597656 356.316406 15.6875 355.953125 15.789062 C 356.929688 16.894531 363.433594 16.230469 363.726562 16.246094 C 363.363281 16.28125 362.996094 16.316406 362.613281 16.351562 C 363.921875 17.035156 365.316406 16.808594 366.65625 17.226562 C 366.308594 17.316406 365.941406 17.402344 365.578125 17.492188 C 365.578125 17.578125 365.578125 17.664062 365.578125 17.753906 C 370.894531 18.367188 385.15625 20.222656 390.160156 20.679688 C 389.898438 21.136719 388.957031 20.820312 389.566406 21.820312 C 388.433594 21.730469 387.527344 21.695312 386.636719 21.574219 C 385.800781 21.46875 385.851562 20.3125 384.128906 21.046875 C 384.527344 21.101562 384.945312 21.171875 385.539062 21.257812 C 384.160156 22.152344 384.773438 20.714844 381.425781 20.644531 C 381.425781 20.75 381.425781 20.855469 381.425781 20.960938 C 381.84375 21.011719 382.277344 21.082031 382.714844 21.152344 C 382.714844 21.1875 382.714844 21.222656 382.730469 21.257812 C 381.984375 21.382812 381.234375 21.519531 380.484375 21.644531 C 380.484375 21.695312 380.464844 21.75 380.464844 21.800781 C 380.554688 21.820312 396.105469 23.695312 396.332031 23.871094 C 395.632812 23.992188 394.9375 24.113281 394.238281 24.238281 C 394.222656 24.289062 394.222656 24.34375 394.222656 24.394531 C 398.648438 25.394531 399.558594 25.570312 400.828125 26.023438 C 399.574219 25.988281 398.335938 25.972656 397.082031 25.9375 C 398.476562 27.445312 399.851562 26.429688 404.335938 27.460938 C 403.949219 27.515625 403.585938 27.566406 403.199219 27.601562 C 403.183594 27.707031 403.183594 27.777344 403.183594 27.882812 C 407.367188 28.617188 417.863281 29.722656 427.433594 31.175781 C 426.773438 31.28125 426.390625 31.351562 425.988281 31.421875 C 425.988281 31.476562 425.988281 31.527344 425.988281 31.5625 C 426.40625 31.667969 426.824219 31.773438 427.242188 31.878906 C 427.242188 31.929688 427.242188 32 427.242188 32.054688 C 426.914062 32.140625 426.582031 32.210938 426.003906 32.351562 C 427.539062 33.578125 428.847656 32.613281 429.613281 33.683594 C 429.875 34.050781 434.007812 33.859375 434.355469 34.453125 C 434.058594 34.472656 433.78125 34.507812 433.484375 34.488281 C 426.546875 34.050781 433.484375 34.296875 426.355469 34.875 C 426.632812 35.085938 426.789062 35.207031 427.050781 35.417969 C 425.917969 35.769531 427.070312 35.15625 424.035156 35.136719 C 422.414062 35.121094 423.511719 34.488281 422.65625 34.472656 C 421.960938 34.4375 421.246094 34.4375 420.390625 34.417969 C 420.546875 34.71875 420.652344 34.925781 420.738281 35.121094 L 420.757812 35.121094 C 418.316406 34.910156 419.605469 36.207031 416.9375 35.03125 C 416.730469 35.207031 416.519531 35.367188 416.3125 35.523438 C 416.730469 35.855469 415.964844 35.609375 419.660156 35.996094 C 421.035156 36.136719 420.445312 37.277344 422.429688 36.960938 C 423.597656 36.785156 424.609375 37.695312 426.109375 37.730469 C 430.050781 37.800781 425.96875 38.449219 430.972656 37.855469 C 430.992188 37.941406 431.027344 38.03125 431.042969 38.117188 C 430.644531 38.34375 430.242188 38.589844 429.839844 38.816406 C 429.839844 38.921875 429.859375 39.011719 429.875 39.097656 C 435.4375 39.589844 437.441406 39.535156 444.714844 41.167969 C 442.238281 41.375 439.761719 41.375 437.042969 40.851562 C 438.699219 42.5 441.085938 41.78125 445.429688 42.867188 C 445.234375 42.867188 445.042969 42.882812 444.835938 42.902344 C 444.835938 42.953125 444.816406 43.023438 444.800781 43.09375 C 445.324219 43.199219 445.863281 43.285156 446.386719 43.390625 C 446.386719 43.445312 446.386719 43.496094 446.371094 43.566406 C 444.992188 43.460938 443.613281 43.355469 442.238281 43.25 C 442.21875 43.355469 442.21875 43.460938 442.203125 43.566406 C 444.433594 44.214844 446.71875 44.582031 449.035156 44.777344 C 446.980469 45.546875 444.800781 44.460938 442.515625 45.160156 C 445.148438 46.933594 446.648438 45.109375 449.175781 46.914062 C 449.523438 47.160156 450.726562 47.125 451.148438 47.140625 C 450.796875 47.441406 450.589844 47.617188 450.292969 47.878906 C 450.691406 47.949219 450.972656 48 451.25 48.070312 C 451.128906 48.210938 449.785156 48.351562 449.160156 48.613281 C 450.953125 49.910156 451.582031 47.914062 453.519531 50.226562 C 453.152344 50.332031 452.871094 50.347656 452.644531 50.488281 C 452.488281 50.578125 452.453125 50.925781 452.316406 50.960938 C 451.949219 51.085938 446.507812 50.875 446.386719 50.855469 C 446.527344 51.121094 446.597656 51.261719 446.789062 51.628906 C 446.039062 51.191406 439.746094 49.699219 438.28125 51.296875 C 444.121094 52.117188 450.886719 52.277344 454.894531 54.167969 C 453.9375 54.238281 452.996094 54.292969 452.035156 54.363281 C 452.035156 54.328125 452.035156 54.292969 452.019531 54.257812 C 452.210938 54.203125 452.382812 54.152344 452.558594 54.117188 C 451.425781 53.871094 450.398438 53.625 449.230469 53.90625 C 447.992188 54.203125 447.136719 53.890625 444.347656 53.835938 C 445.078125 54.609375 445.933594 54.167969 446.613281 54.625 C 446.613281 54.625 437.304688 54.203125 435.296875 54.835938 C 436.796875 54.976562 438.28125 55.132812 439.761719 55.273438 C 439.761719 55.324219 439.761719 55.378906 439.761719 55.429688 C 437.128906 55.464844 434.496094 55.484375 431.863281 55.5 C 431.863281 55.605469 431.847656 55.695312 431.847656 55.78125 C 433.832031 55.957031 435.160156 56.027344 436.378906 56.34375 C 433.519531 57.027344 434.164062 56.554688 429.578125 56.308594 C 421.664062 55.871094 425.222656 58.339844 418.960938 56.675781 C 422.519531 56.289062 421.683594 57.324219 423.859375 56.34375 C 423.84375 56.21875 423.828125 56.097656 423.808594 55.972656 C 423.511719 55.957031 417.496094 55.605469 414.65625 56.183594 C 412.265625 55.449219 409.84375 55.570312 407.421875 55.800781 C 408.832031 55.992188 412.929688 56.535156 414.671875 56.167969 C 414.429688 57.253906 415.578125 56.554688 417.515625 57.0625 C 413.851562 57.042969 410.90625 56.867188 410.90625 56.867188 C 412.683594 57.726562 414.621094 57.359375 416.46875 57.917969 C 415.144531 57.902344 413.820312 57.867188 412.476562 57.851562 C 412.476562 57.917969 412.476562 57.988281 412.476562 58.058594 C 414.183594 58.289062 423.632812 59.777344 425.152344 60.476562 C 424.664062 60.496094 424.175781 60.511719 423.6875 60.511719 C 423.6875 60.617188 423.667969 60.722656 423.667969 60.828125 C 426.789062 61.40625 435.855469 61.636719 438.070312 62.511719 C 438.054688 62.597656 438.035156 62.6875 438.019531 62.773438 C 437.722656 62.722656 426.25 61.109375 418.683594 62.230469 C 419.640625 62.757812 420.496094 62.667969 421.28125 62.652344 C 422.136719 62.632812 422.222656 63.984375 423.214844 63.582031 C 423.144531 63.421875 423.042969 63.230469 422.902344 62.949219 C 423.476562 62.96875 424.035156 62.96875 424.679688 62.984375 C 423.460938 65 421.542969 64.492188 419.851562 64.910156 C 420.480469 65.175781 421.125 65.4375 422.03125 65.804688 C 419.222656 65.628906 395.234375 64.175781 392.808594 65.59375 C 393.523438 65.839844 394.011719 66 394.519531 66.171875 C 393.890625 66.839844 393.175781 66.507812 392.425781 66.347656 C 392.285156 66.664062 392.164062 66.960938 392.007812 67.3125 C 391.519531 67.15625 380.902344 66.542969 380.097656 67.03125 C 380.34375 67.171875 380.570312 67.3125 380.847656 67.46875 C 380.675781 67.628906 374.660156 67.558594 374.414062 67.503906 C 374.378906 67.574219 374.257812 67.785156 374.101562 68.015625 C 376.332031 68.730469 375.828125 68.488281 376.195312 69.082031 C 374.242188 68.925781 372.410156 68.765625 370.492188 68.609375 C 370.578125 68.871094 370.613281 69.011719 370.683594 69.207031 C 370.683594 69.207031 364.894531 68.628906 362.472656 70.414062 C 363.207031 70.554688 363.605469 70.625 364.148438 70.710938 C 363.449219 70.851562 359.371094 70.625 358.777344 71.414062 C 357.871094 70.941406 357 71.640625 356.074219 71.535156 C 358.601562 72.394531 361.253906 72.289062 363.816406 72.851562 C 363.816406 72.9375 363.796875 73.027344 363.796875 73.113281 C 341.410156 72.640625 348.105469 72.394531 341.898438 74.515625 C 342.351562 75.179688 342.980469 75.214844 343.574219 75.179688 C 350.722656 74.796875 367.949219 76.496094 368.59375 76.742188 C 367.582031 78.144531 363.011719 77.039062 362.523438 76.863281 C 360.851562 76.269531 359.371094 77.617188 357.488281 77.125 C 356.804688 76.953125 356.109375 77.003906 355.394531 77.089844 C 355.5 78.25 356.316406 77.667969 356.789062 77.933594 C 356.738281 78.089844 356.683594 78.25 356.546875 78.597656 C 361.863281 78.722656 359.316406 76.863281 362.769531 78.667969 C 362.019531 80.019531 361.128906 78.667969 359.839844 80.226562 C 356.980469 83.644531 348.925781 82.121094 341.011719 82.15625 C 340.714844 82.15625 330.621094 82.734375 327.273438 81.613281 C 323.246094 80.296875 322.773438 82.960938 321.167969 81.839844 C 319.183594 80.457031 312.921875 82.472656 306.367188 80.773438 C 306.714844 80.597656 306.90625 80.507812 307.257812 80.332031 C 305.285156 78.949219 302.949219 79.914062 300.804688 78.84375 C 301.347656 78.703125 301.675781 78.617188 302.128906 78.492188 C 301.292969 78.476562 300.578125 78.457031 299.882812 78.441406 C 299.375 76.199219 306.246094 77.617188 328.316406 75.96875 C 327.621094 75.777344 326.957031 75.777344 326.976562 75.023438 C 326.976562 74.917969 327.339844 74.671875 327.410156 74.726562 C 328.40625 75.445312 329.503906 74.550781 330.496094 74.9375 C 330.652344 75.09375 330.792969 75.234375 330.949219 75.390625 C 330.984375 75.320312 331.019531 75.269531 331.074219 75.199219 C 330.863281 75.128906 330.671875 75.042969 330.460938 74.972656 C 330.949219 74.21875 332.050781 75.09375 333.304688 75.917969 C 332.921875 72.449219 334.628906 73.847656 319.09375 73.410156 C 309.90625 73.132812 304.066406 74.289062 302.164062 72.535156 C 299.691406 73.832031 302.898438 72.726562 298.226562 72.535156 C 297.527344 72.5 275.945312 70.1875 257.914062 70.730469 C 257.914062 70.640625 257.914062 70.539062 257.898438 70.433594 C 259.378906 70.363281 260.84375 70.273438 262.292969 70.1875 C 258.960938 68.90625 255.492188 69.660156 252.058594 69.539062 C 252.058594 69.449219 252.039062 69.363281 252.039062 69.277344 C 254.046875 68.871094 254.480469 68.996094 254.863281 68.015625 C 252.265625 67.679688 249.792969 67.136719 246.964844 67.523438 C 247.332031 67.296875 247.488281 67.171875 247.714844 67.03125 C 247.453125 66.648438 247.351562 66.753906 245.277344 66.613281 C 245.378906 66.488281 245.46875 66.382812 245.625 66.171875 C 245.308594 66.035156 245.015625 65.894531 244.699219 65.734375 C 247.351562 65.628906 249.949219 65.542969 252.683594 65.4375 C 251.5 63.476562 206.640625 65.804688 204.667969 66.839844 C 203.851562 66.171875 203.03125 66.507812 202.195312 66.875 C 203.011719 67.050781 203.851562 67.050781 204.667969 66.820312 C 204.894531 66.890625 205.140625 66.945312 205.402344 67.015625 C 203.886719 67.945312 201.652344 67.855469 200.46875 66.960938 C 200.433594 66.960938 166.136719 70.011719 165.894531 69.890625 C 165.265625 70.097656 113.519531 76.304688 113.222656 76.375 C 113.1875 76.617188 113.152344 76.828125 113.117188 77.039062 C 109.929688 78.019531 101.4375 77.6875 101.019531 77.667969 C 98.71875 77.566406 98.507812 78.5625 97.566406 79.316406 C 97.148438 78.335938 96.503906 77.984375 95.578125 78.457031 C 94.847656 78.828125 86.390625 78.371094 85.675781 79.613281 C 85.902344 79.859375 86.113281 80.089844 86.410156 80.386719 C 85.171875 80.929688 84.664062 79.949219 84.039062 79.28125 C 83.199219 79.546875 82.398438 79.703125 81.667969 79.054688 C 80.480469 79.894531 75.199219 78.039062 73.191406 79.914062 C 68.730469 79.105469 69.289062 79 68.257812 80.035156 C 68.957031 80.316406 69.460938 80.789062 69.636719 81.59375 C 68.9375 82.507812 66.917969 82.035156 68.03125 81.035156 C 68.3125 81.246094 68.574219 81.4375 68.835938 81.648438 C 68.78125 80.964844 68.398438 81.015625 67.996094 81.050781 C 67.929688 80.296875 67.40625 79.949219 66.8125 79.703125 L 66.828125 79.683594 C 60.273438 79.914062 64.039062 80.367188 59.769531 80.070312 C 59.644531 80.457031 59.542969 80.773438 59.386719 81.226562 C 58.949219 80.859375 58.601562 80.578125 58.234375 80.28125 C 58.828125 78.757812 60.257812 80.210938 61.007812 79.265625 C 60.726562 78.214844 55.445312 78.808594 54.675781 79.140625 C 55.164062 79.371094 55.460938 79.511719 55.757812 79.632812 C 55.53125 80.84375 54.066406 79.824219 50.894531 81.15625 C 49.046875 81.929688 43.640625 81.191406 42.613281 80.753906 C 43.535156 79.71875 50.023438 80.125 52.359375 79.351562 C 51.90625 78.144531 51.871094 78.125 50.476562 78.371094 C 50.597656 78.5625 50.683594 78.722656 50.789062 78.914062 C 49.988281 79 49.203125 79.070312 48.4375 79.160156 C 48.3125 78.757812 48.191406 78.371094 48.070312 77.96875 C 48.574219 77.898438 49.132812 77.84375 49.707031 77.773438 C 48.210938 76.988281 46.640625 77.738281 45.089844 77.265625 C 46.449219 76.6875 47.40625 77.089844 48.382812 76.285156 L 48.347656 76.304688 C 51.625 76.304688 51.242188 76.601562 52.375 74.621094 C 53.179688 74.796875 53.210938 75.515625 53.472656 76.023438 C 53.996094 75.917969 53.996094 75.898438 54.101562 75.304688 C 55.425781 75.515625 56.421875 74.09375 58.023438 74.601562 C 57.03125 71.464844 55.53125 74.621094 49.410156 74.183594 C 51.347656 72.464844 50.371094 73.042969 53.039062 71.957031 C 53.109375 72.378906 53.144531 72.65625 53.210938 73.027344 C 56.125 72.746094 59.035156 72.464844 61.894531 72.203125 C 62.242188 71.132812 61.320312 71.011719 61.023438 70.398438 C 61.199219 70.167969 61.40625 69.925781 61.722656 69.554688 C 58.128906 67.539062 60.34375 70.539062 58.148438 69.871094 C 58.164062 69.519531 58.183594 69.222656 58.199219 68.941406 C 56.71875 68.90625 55.199219 67.785156 53.597656 69.171875 C 54.257812 69.378906 54.765625 69.539062 55.289062 69.695312 C 55.289062 69.800781 55.289062 69.90625 55.289062 70.011719 C 47.425781 70.816406 46.78125 69.328125 46.78125 69.328125 C 44.25 70.363281 44.476562 70.132812 41.96875 70.273438 C 42.265625 69.976562 42.332031 69.890625 42.402344 69.835938 C 42.402344 69.835938 35.21875 70.835938 32.640625 70.992188 C 31.542969 71.0625 30.667969 70.519531 29.675781 70.90625 C 28.976562 71.167969 28.332031 71.921875 27.582031 71.0625 C 27.566406 71.027344 27.496094 70.992188 27.480469 71.011719 C 26.765625 71.5 25.980469 70.976562 25.230469 71.1875 C 19.457031 72.851562 21.882812 73.359375 15.449219 71.675781 C 15.117188 71.0625 14.820312 70.554688 14.542969 70.027344 C 15.03125 69.347656 21.203125 70.835938 21.761719 70.609375 C 21.238281 69.714844 20.105469 70.398438 19.617188 69.574219 C 19.894531 68.714844 20.75 69.242188 21.253906 68.75 C 20.886719 67.804688 20.140625 68.46875 19.492188 68.257812 C 19.40625 67.945312 19.300781 67.539062 19.179688 67.066406 C 19.457031 66.945312 19.753906 66.820312 20.035156 66.71875 C 19.859375 65.839844 17.820312 65.28125 16.6875 65.121094 C 14.785156 64.859375 14.472656 65.699219 14.351562 63.929688 C 14.316406 63.265625 14.105469 62.652344 14.683594 62.144531 L 14.648438 62.109375 C 16.304688 64.125 16.929688 62.144531 18.726562 62.265625 C 20.835938 62.441406 20.453125 60.53125 20.453125 60.53125 C 22.003906 62.25 23.382812 60.742188 24.636719 61.125 C 28.296875 62.285156 31.246094 60.410156 32.5 61.160156 C 31.714844 62.214844 30.53125 61.40625 29.433594 62.144531 C 32.308594 62.546875 31.054688 62.582031 34.085938 62.125 C 34.050781 61.96875 34 61.773438 33.949219 61.53125 C 34.191406 61.511719 34.609375 61.425781 34.644531 61.511719 C 35.0625 62.492188 35.273438 61.773438 41.496094 61.371094 C 42.089844 61.335938 42.210938 61.003906 42.296875 60.339844 C 43.414062 61.511719 43.921875 60.898438 45.679688 61.601562 C 44.757812 61.476562 43.816406 61.25 42.925781 61.652344 C 42.945312 61.757812 42.945312 61.84375 42.960938 61.933594 C 43.867188 61.828125 44.773438 61.703125 45.679688 61.601562 C 45.90625 61.285156 48.871094 60.511719 50.371094 60.8125 C 50.667969 60.863281 52.339844 62.371094 54.121094 61.023438 C 53.925781 60.671875 53.71875 60.320312 53.472656 59.863281 C 41.480469 60.546875 45.035156 60.96875 42.265625 59.742188 C 40.972656 60.566406 38.375 58.9375 37.207031 60.375 C 36.910156 60.757812 36.789062 59.988281 36.511719 59.988281 C 31.175781 59.863281 34.644531 60.722656 27.878906 60.179688 C 27.984375 60.074219 28.089844 59.988281 28.28125 59.828125 C 27.914062 59.671875 27.601562 59.53125 27.289062 59.390625 C 27.113281 58.359375 28.089844 58.636719 28.402344 58.183594 C 28.75 57.691406 29.171875 57.269531 29.640625 56.746094 C 28.785156 56.203125 28.035156 56.9375 27.253906 56.816406 C 26.449219 56.691406 25.628906 56.867188 24.792969 56.796875 C 25.734375 56.289062 26.800781 56.605469 27.933594 56.167969 C 27.199219 55.605469 24.445312 56.132812 23.90625 56.238281 C 23.90625 56.113281 23.886719 56.007812 23.871094 55.886719 C 26.921875 55.554688 27.984375 55.554688 28.246094 54.886719 C 28.839844 53.398438 30.460938 54.992188 31.714844 53.292969 C 31.054688 52.941406 31.105469 53.207031 27.863281 53.890625 C 25.125 56.0625 16.964844 55.800781 14.402344 55.660156 C 14.664062 54.1875 15.832031 55.152344 16.425781 54.625 C 15.398438 53.785156 15.398438 53.785156 15.152344 52.539062 C 11.4375 52.292969 14.683594 49.910156 9.417969 50.417969 C 9.136719 50 8.859375 49.59375 8.5625 49.175781 C 9.835938 47.335938 9.972656 47.246094 12.207031 46.898438 C 12.207031 46.617188 12.207031 46.335938 12.222656 46.089844 C 14.035156 45.808594 12.816406 46.914062 16.617188 45.652344 C 20.070312 44.496094 20.382812 45.230469 22.179688 43.585938 C 20.976562 42.148438 20.3125 43.078125 18.414062 42.410156 C 20.921875 42.480469 23.886719 41.515625 24.375 40.253906 C 23.488281 40.621094 22.703125 39.851562 21.8125 40.429688 C 21.238281 40.796875 20.679688 40.394531 20.417969 39.730469 C 20.523438 40.0625 20.714844 40.273438 20.90625 39.941406 C 20.539062 39.710938 20.679688 39.765625 20.382812 39.765625 C 21.34375 39.605469 22.109375 39.660156 22.964844 38.730469 C 20.714844 37.890625 21.570312 39.660156 18.953125 37.554688 C 20.3125 37.257812 21.5 36.417969 22.894531 37.1875 C 23.226562 37.382812 24.078125 36.960938 24.359375 37.136719 C 25.683594 37.941406 30.984375 36.328125 32.972656 35.875 C 31.976562 35.015625 31 35.226562 29.988281 34.824219 C 31.121094 33.753906 65.941406 32.28125 67.5625 31.71875 C 64.632812 30.054688 65.070312 30.863281 61.214844 30.863281 C 59.769531 30.878906 60.882812 29.96875 59 30.5625 C 59.125 30.738281 59.226562 30.878906 59.351562 31.039062 C 57.9375 31.300781 46.570312 33.105469 44.949219 32.089844 C 46.167969 31.335938 47.441406 31.964844 48.664062 31.476562 C 48.574219 31.230469 48.488281 31.003906 48.382812 30.703125 C 48.957031 30.792969 49.464844 31.441406 50.074219 30.949219 L 50.039062 30.933594 C 51.46875 31.457031 50.457031 31.476562 53.734375 31.140625 C 53.875 29.09375 63.726562 30.300781 64.546875 28.953125 C 62.539062 28.144531 60.292969 29.546875 55.21875 28.8125 C 57.433594 28.039062 56.628906 28.8125 61.949219 28.214844 C 63.65625 28.023438 63.621094 26.761719 65.871094 26.9375 C 76.488281 27.761719 68.800781 25.746094 78.511719 24.535156 C 79.992188 24.34375 81.507812 24.746094 82.9375 24.0625 C 83.234375 23.921875 83.949219 24.449219 84.230469 24.378906 C 85.277344 24.097656 86.285156 24.394531 87.296875 24.519531 C 87.578125 25.042969 87.578125 25.042969 88.1875 24.78125 C 87.804688 24.675781 87.542969 24.605469 87.28125 24.535156"/></g><path fill="#287BA4" d="M 19.824219 57.9375 C 14.664062 58.375 14.246094 58.636719 14.507812 57.640625 C 14.089844 57.675781 13.722656 57.726562 13.480469 57.746094 C 13.375 57.394531 13.285156 57.078125 13.164062 56.621094 C 13.234375 56.449219 22.667969 56.097656 22.839844 56.078125 C 21.601562 57.429688 19.929688 55.78125 19.824219 57.9375"/><path fill="#287BA4" d="M 17.507812 68.855469 C 17.226562 68.925781 16.984375 69.101562 16.84375 69.011719 C 15.308594 68.277344 11.769531 69.90625 10.792969 67.101562 C 13.707031 67.839844 14 68.679688 15.292969 67.261719 C 15.570312 68.574219 16.859375 67.980469 17.507812 68.855469"/><path fill="#287BA4" d="M 53.371094 29.058594 C 52.953125 29.058594 46.746094 29.792969 43.308594 29.335938 C 44.496094 29.195312 45.769531 28.6875 46.867188 28.96875 C 49.046875 29.511719 51.121094 28.8125 53.246094 28.898438 C 53.265625 28.898438 53.28125 28.953125 53.371094 29.058594"/><path fill="#287BA4" d="M 318.449219 74.621094 C 320.160156 74.796875 321.570312 74.953125 323.105469 75.109375 C 322.6875 75.863281 322.425781 75.671875 319.863281 75.496094 C 319.390625 75.460938 318.796875 75.707031 318.449219 74.621094"/><g clip-path="url(#b)"><path fill="#287BA4" d="M 98.457031 79.5625 C 99.1875 79.070312 99.730469 78.722656 100.355469 78.316406 C 100.808594 79 101.261719 79.632812 101.820312 80.4375 C 100.582031 80.125 99.625 79.859375 98.457031 79.5625"/></g><path fill="#287BA4" d="M 446.597656 58.65625 C 444.992188 58.550781 443.40625 58.445312 441.800781 58.324219 C 443.421875 58.078125 445.027344 58.042969 446.597656 58.65625"/><path fill="#287BA4" d="M 430.066406 63.386719 C 431.828125 63.5625 433.589844 63.738281 435.402344 63.914062 C 434.808594 64.230469 435.945312 64.246094 430.03125 63.808594 C 430.03125 63.667969 430.050781 63.527344 430.066406 63.386719"/><path fill="#287BA4" d="M 326.277344 75.410156 C 325.265625 75.792969 325.265625 75.792969 324.21875 75.109375 C 325.074219 74.636719 324.742188 74.8125 325.492188 74.429688 C 325.738281 74.742188 326 75.058594 326.277344 75.410156"/><path fill="#287BA4" d="M 92.738281 19.332031 C 94.238281 19.367188 95.753906 19.402344 97.183594 19.4375 C 96.660156 19.804688 94.691406 19.839844 92.738281 19.332031"/><path fill="#287BA4" d="M 50.074219 30.949219 C 50.214844 30.738281 50.355469 30.527344 50.476562 30.371094 C 51.277344 30.390625 52.027344 30.40625 52.792969 30.40625 C 52.8125 30.511719 52.8125 30.597656 52.828125 30.703125 C 52.726562 30.738281 50.109375 30.914062 50.039062 30.933594 C 50.039062 30.933594 50.074219 30.949219 50.074219 30.949219"/><path fill="#287BA4" d="M 47.179688 31.140625 C 46.117188 31.230469 45.035156 31.316406 43.972656 31.40625 C 43.953125 31.316406 43.953125 31.230469 43.9375 31.125 C 44.410156 30.828125 44.636719 30.933594 47.164062 30.984375 C 47.164062 31.039062 47.179688 31.089844 47.179688 31.140625"/><path fill="#287BA4" d="M 61.25 71.730469 C 60.449219 71.816406 59.839844 71.886719 59.226562 71.957031 C 59.785156 71.519531 60.308594 70.746094 61.25 71.730469"/><path fill="#287BA4" d="M 435.785156 57.113281 C 436.484375 57.359375 437.179688 57.605469 437.859375 57.832031 C 437.859375 57.902344 437.84375 57.953125 437.828125 58.023438 C 437.128906 57.816406 436.414062 57.605469 435.714844 57.394531 C 435.734375 57.289062 435.75 57.203125 435.785156 57.113281"/><path fill="#287BA4" d="M 23.574219 60.320312 C 24.53125 59.691406 25.578125 59.933594 26.605469 59.898438 C 25.628906 60.546875 24.550781 60.039062 23.554688 60.285156 L 23.574219 60.320312"/><path fill="#287BA4" d="M 48.382812 76.285156 C 48.210938 76.234375 48.015625 76.179688 47.6875 76.09375 C 48.332031 75.199219 49.097656 75.621094 49.777344 75.585938 C 49.671875 75.636719 48.3125 76.339844 48.382812 76.285156"/><path fill="#287BA4" d="M 439.394531 56.414062 C 438.855469 56.867188 438.332031 56.851562 437.84375 56.378906 C 438.367188 56.394531 438.871094 56.394531 439.394531 56.414062"/><g clip-path="url(#c)"><path fill="#287BA4" d="M 109.421875 78.949219 C 110.226562 78.964844 110.503906 79.28125 110.503906 80.210938 C 110.066406 79.703125 109.789062 79.371094 109.421875 78.949219"/></g><path fill="#287BA4" d="M 23.554688 60.285156 C 22.980469 60.882812 22.421875 60.566406 21.863281 60.214844 C 22.441406 60.144531 23.015625 59.792969 23.574219 60.320312 C 23.574219 60.320312 23.554688 60.285156 23.554688 60.285156"/><path fill="#287BA4" d="M 432.597656 57.429688 C 431.898438 57.410156 431.183594 57.410156 430.484375 57.394531 C 430.484375 57.339844 430.484375 57.289062 430.484375 57.234375 C 431.183594 57.253906 431.898438 57.269531 432.613281 57.289062 C 432.613281 57.339844 432.597656 57.375 432.597656 57.429688"/><path fill="#287BA4" d="M 306.542969 74.847656 C 306.996094 74.882812 307.449219 74.917969 307.902344 74.953125 C 307.902344 74.988281 307.882812 75.042969 307.882812 75.078125 C 307.429688 75.058594 306.976562 75.058594 306.523438 75.042969 C 306.523438 74.988281 306.523438 74.917969 306.542969 74.847656"/><path fill="#287BA4" d="M 317.628906 75.339844 C 317.332031 75.550781 317.089844 75.8125 316.550781 75.410156 C 316.863281 75.304688 317.195312 75.179688 317.507812 75.058594 C 317.542969 75.144531 317.59375 75.25 317.628906 75.339844"/><path fill="#287BA4" d="M 41.84375 29.808594 C 41.339844 29.863281 40.816406 29.933594 40.3125 29.984375 C 40.292969 29.933594 40.292969 29.863281 40.277344 29.792969 C 40.800781 29.707031 41.320312 29.617188 41.84375 29.53125 C 41.84375 29.636719 41.84375 29.707031 41.84375 29.808594"/><path fill="#287BA4" d="M 442.0625 62.96875 C 441.574219 62.96875 441.085938 62.949219 440.582031 62.949219 C 440.597656 62.878906 440.597656 62.808594 440.597656 62.738281 C 441.085938 62.773438 441.59375 62.828125 442.082031 62.878906 C 442.082031 62.914062 442.082031 62.949219 442.0625 62.96875"/><path fill="#287BA4" d="M 45.105469 75.898438 C 45.382812 75.882812 45.664062 75.882812 45.960938 75.863281 C 45.960938 75.933594 45.960938 76.023438 45.976562 76.109375 C 45.679688 76.144531 45.382812 76.179688 45.089844 76.214844 C 45.105469 76.109375 45.105469 76.003906 45.105469 75.898438"/><path fill="#287BA4" d="M 9.871094 64.125 C 10.289062 64.070312 10.601562 64.035156 10.96875 63.984375 C 10.742188 64.648438 10.289062 64.542969 9.871094 64.125"/><path fill="#287BA4" d="M 17.59375 38.679688 C 18.167969 38.695312 18.761719 38.710938 19.335938 38.730469 C 19.335938 38.765625 19.335938 38.816406 19.335938 38.871094 C 18.742188 38.851562 18.152344 38.835938 17.558594 38.816406 C 17.558594 38.78125 17.574219 38.730469 17.59375 38.679688"/><path fill="#287BA4" d="M 239.886719 13.671875 C 239.3125 13.671875 238.753906 13.652344 237.953125 13.636719 C 238.753906 13.144531 239.332031 13.371094 239.886719 13.6875 C 239.886719 13.6875 239.886719 13.671875 239.886719 13.671875"/><path fill="#287BA4" d="M 14.261719 61.023438 C 13.878906 60.988281 13.480469 60.96875 13.042969 60.953125 C 13.496094 60.304688 13.878906 60.742188 14.261719 61.023438"/><path fill="#287BA4" d="M 14.261719 61.023438 C 14.820312 60.828125 15.378906 60.53125 15.972656 61.058594 C 15.414062 61.039062 14.839844 61.023438 14.261719 61.023438"/><path fill="#287BA4" d="M 56.613281 69.660156 C 56.839844 69.609375 57.066406 69.554688 57.273438 69.484375 C 57.292969 69.589844 57.328125 69.695312 57.34375 69.785156 C 57.117188 69.835938 56.890625 69.890625 56.683594 69.941406 C 56.648438 69.835938 56.628906 69.75 56.613281 69.660156"/><path fill="#287BA4" d="M 447.921875 51.382812 C 448.253906 51.4375 448.566406 51.488281 448.898438 51.539062 C 448.878906 51.609375 448.863281 51.679688 448.863281 51.75 C 448.53125 51.699219 448.21875 51.628906 447.902344 51.558594 C 447.902344 51.503906 447.921875 51.4375 447.921875 51.382812"/><path fill="#287BA4" d="M 14.683594 62.144531 C 15.066406 61.441406 15.554688 62.074219 16.007812 62.144531 C 15.554688 62.125 15.101562 62.125 14.648438 62.109375 C 14.648438 62.109375 14.683594 62.144531 14.683594 62.144531"/><g clip-path="url(#d)"><path fill="#287BA4" d="M 107.835938 78.546875 C 107.941406 79.019531 108.011719 78.863281 107.660156 79.175781 C 107.523438 78.773438 107.488281 78.933594 107.835938 78.546875"/></g><path fill="#287BA4" d="M 314.054688 74.917969 C 314.246094 74.953125 314.441406 74.988281 314.632812 75.023438 C 314.613281 75.09375 314.613281 75.164062 314.597656 75.25 C 314.40625 75.214844 314.214844 75.179688 314.019531 75.144531 C 314.019531 75.078125 314.039062 74.988281 314.054688 74.917969"/><path fill="#287BA4" d="M 230.71875 66.4375 C 230.472656 66.417969 230.230469 66.382812 230.003906 66.367188 C 230.003906 66.3125 230.003906 66.261719 230.003906 66.226562 C 230.246094 66.207031 230.507812 66.207031 230.753906 66.207031 C 230.753906 66.277344 230.734375 66.347656 230.71875 66.4375"/><path fill="#287BA4" d="M 447.78125 54.695312 C 448.09375 54.695312 448.410156 54.695312 448.722656 54.710938 C 448.722656 54.730469 448.722656 54.765625 448.722656 54.800781 C 448.410156 54.78125 448.09375 54.78125 447.765625 54.78125 C 447.765625 54.746094 447.78125 54.710938 447.78125 54.695312"/><path fill="#287BA4" d="M 42.402344 32.28125 C 42.558594 32.316406 42.71875 32.367188 42.875 32.421875 C 42.875 32.472656 42.875 32.507812 42.855469 32.5625 C 42.683594 32.5625 42.523438 32.5625 42.351562 32.5625 C 42.367188 32.472656 42.386719 32.367188 42.402344 32.28125"/><path fill="#287BA4" d="M 11.769531 63.5625 C 11.980469 63.40625 12.1875 63.28125 12.398438 63.140625 C 12.414062 63.175781 12.449219 63.210938 12.484375 63.246094 C 12.292969 63.421875 12.117188 63.597656 11.925781 63.789062 C 11.875 63.703125 11.824219 63.632812 11.769531 63.5625"/><path fill="#287BA4" d="M 42.230469 31.5625 C 41.984375 31.5625 41.757812 31.546875 41.53125 31.546875 C 41.53125 31.492188 41.515625 31.441406 41.515625 31.386719 C 41.757812 31.351562 41.984375 31.316406 42.230469 31.28125 C 42.230469 31.371094 42.230469 31.457031 42.230469 31.5625"/><path fill="#287BA4" d="M 310.132812 74.9375 C 309.765625 74.972656 309.609375 74.988281 309.4375 74.988281 C 309.417969 74.9375 309.402344 74.882812 309.382812 74.832031 C 309.785156 74.601562 309.59375 74.621094 310.132812 74.9375"/><path fill="#287BA4" d="M 394.359375 22.167969 C 393.941406 22.203125 394.046875 22.1875 393.996094 21.996094 C 394.378906 21.90625 394.292969 21.890625 394.359375 22.167969"/><path fill="#287BA4" d="M 209.636719 14.335938 C 209.832031 14.335938 210.023438 14.335938 210.511719 14.355469 C 210.058594 14.476562 209.867188 14.527344 209.691406 14.5625 C 209.671875 14.492188 209.65625 14.40625 209.636719 14.335938"/><path fill="#287BA4" d="M 49.117188 71.886719 C 49.167969 71.835938 49.203125 71.78125 49.253906 71.730469 C 49.429688 71.921875 49.445312 71.835938 49.253906 72.042969 C 49.203125 71.992188 49.167969 71.9375 49.117188 71.886719"/><path fill="#287BA4" d="M 245.34375 67.296875 C 245.570312 67.3125 245.816406 67.347656 246.058594 67.367188 C 246.058594 67.4375 246.058594 67.503906 246.042969 67.558594 C 245.796875 67.539062 245.554688 67.503906 245.308594 67.488281 C 245.328125 67.417969 245.328125 67.347656 245.34375 67.296875"/><g clip-path="url(#e)"><path fill="#287BA4" d="M 102.816406 79.210938 C 102.484375 79.140625 102.152344 79.070312 101.820312 79 C 101.855469 78.914062 101.875 78.808594 101.910156 78.738281 C 102.1875 78.898438 102.484375 79.070312 102.796875 79.230469 C 102.796875 79.230469 102.816406 79.210938 102.816406 79.210938"/></g><path fill="#287BA4" d="M 11.839844 62.25 C 11.664062 62.230469 11.492188 62.230469 11.300781 62.230469 C 11.300781 62.214844 11.300781 62.195312 11.300781 62.179688 C 11.472656 62.195312 11.664062 62.195312 11.839844 62.195312 C 11.839844 62.214844 11.839844 62.230469 11.839844 62.25"/><path fill="#287BA4" d="M 233.679688 66.015625 C 233.875 66.015625 234.066406 66.015625 234.257812 66.015625 C 234.257812 66.050781 234.257812 66.085938 234.273438 66.121094 C 234.082031 66.140625 233.890625 66.15625 233.699219 66.171875 C 233.699219 66.121094 233.679688 66.070312 233.679688 66.015625"/><path fill="#287BA4" d="M 20.453125 60.53125 C 20.105469 60.53125 19.753906 60.53125 19.40625 60.511719 C 19.40625 60.441406 19.40625 60.375 19.425781 60.285156 C 19.425781 60.285156 20.453125 60.53125 20.453125 60.53125"/><path fill="#287BA4" d="M 18.847656 43.496094 C 18.988281 43.550781 19.128906 43.621094 19.265625 43.65625 C 19.179688 43.828125 19.300781 43.917969 18.742188 43.742188 C 18.777344 43.671875 18.8125 43.585938 18.847656 43.496094"/><path fill="#287BA4" d="M 398.910156 24.273438 C 398.773438 24.253906 398.632812 24.21875 398.492188 24.203125 C 398.632812 24.167969 398.789062 24.132812 398.945312 24.097656 C 398.929688 24.148438 398.929688 24.21875 398.910156 24.273438"/><path fill="#287BA4" d="M 105.746094 17.175781 C 105.691406 17.226562 105.640625 17.28125 105.585938 17.316406 C 105.535156 17.246094 105.484375 17.15625 105.429688 17.085938 C 105.65625 16.964844 105.570312 16.929688 105.746094 17.175781"/><path fill="#287BA4" d="M 367.460938 17.050781 C 367.527344 17.070312 367.597656 17.105469 367.667969 17.121094 C 367.425781 17.421875 367.492188 17.367188 367.320312 17.210938 C 367.355469 17.15625 367.40625 17.105469 367.460938 17.050781"/><path fill="#287BA4" d="M 377.171875 69.082031 C 377.257812 68.960938 377.328125 68.871094 377.398438 68.765625 C 377.675781 68.996094 377.675781 68.855469 377.484375 69.292969 C 377.398438 69.222656 377.308594 69.171875 377.171875 69.082031"/><path fill="#287BA4" d="M 426.199219 58.621094 C 426.164062 58.585938 426.109375 58.566406 426.074219 58.53125 C 426.214844 58.53125 426.144531 58.515625 426.320312 58.621094 C 426.285156 58.621094 426.230469 58.621094 426.199219 58.621094"/><path fill="#287BA4" d="M 57.535156 72.097656 C 57.398438 72.113281 57.257812 72.132812 57.101562 72.132812 C 57.101562 72.078125 57.101562 72.027344 57.101562 71.972656 C 57.242188 71.957031 57.398438 71.957031 57.535156 71.9375 C 57.535156 71.992188 57.535156 72.042969 57.535156 72.097656"/><path fill="#287BA4" d="M 345.804688 73.585938 C 345.789062 73.640625 345.789062 73.675781 345.769531 73.710938 C 345.507812 73.621094 345.5625 73.621094 345.578125 73.535156 C 345.648438 73.550781 345.734375 73.570312 345.804688 73.585938"/><path fill="#287BA4" d="M 428.5 60.460938 C 428.097656 60.511719 428.238281 60.25 428.324219 60.304688 C 428.394531 60.355469 428.445312 60.410156 428.5 60.460938"/><path fill="#287BA4" d="M 428.570312 37.433594 C 428.535156 37.347656 428.515625 37.277344 428.480469 37.222656 C 428.742188 37.082031 428.65625 37.101562 428.847656 37.222656 C 428.761719 37.292969 428.671875 37.363281 428.570312 37.433594"/><path fill="#287BA4" d="M 427.085938 56.9375 C 427.207031 56.921875 427.277344 56.921875 427.367188 56.921875 C 427.261719 57.042969 427.261719 56.992188 427.085938 56.9375"/><path fill="#287BA4" d="M 420.738281 35.121094 C 421.160156 35.101562 421.578125 35.066406 421.996094 35.03125 C 421.976562 35.121094 421.976562 35.191406 421.976562 35.277344 C 421.578125 35.226562 421.160156 35.171875 420.757812 35.121094 L 420.738281 35.121094"/><path fill="#287BA4" d="M 58.09375 77.546875 C 58.042969 77.460938 58.007812 77.371094 57.957031 77.285156 C 58.148438 77.179688 58.078125 77.089844 58.339844 77.40625 C 58.269531 77.441406 58.199219 77.476562 58.09375 77.546875"/><g fill="#FFF" fill-opacity=".4"><g><g><path d="M 3.484375 -18.921875 L 6.34375 -8.53125 C 6.40625 -8.269531 6.484375 -7.929688 6.578125 -7.515625 C 6.679688 -7.109375 6.773438 -6.679688 6.859375 -6.234375 C 6.953125 -5.785156 7.035156 -5.332031 7.109375 -4.875 C 7.191406 -4.425781 7.265625 -4.023438 7.328125 -3.671875 L 7.390625 -3.671875 C 7.453125 -4.023438 7.519531 -4.425781 7.59375 -4.875 C 7.675781 -5.332031 7.765625 -5.785156 7.859375 -6.234375 C 7.960938 -6.679688 8.066406 -7.101562 8.171875 -7.5 C 8.273438 -7.90625 8.363281 -8.25 8.4375 -8.53125 L 11.421875 -18.921875 L 14.484375 -18.921875 L 17.484375 -8.59375 C 17.566406 -8.351562 17.65625 -8.019531 17.75 -7.59375 C 17.851562 -7.175781 17.953125 -6.738281 18.046875 -6.28125 C 18.148438 -5.820312 18.25 -5.351562 18.34375 -4.875 C 18.4375 -4.40625 18.507812 -4.003906 18.5625 -3.671875 L 18.625 -3.671875 C 18.6875 -4.023438 18.757812 -4.421875 18.84375 -4.859375 C 18.9375 -5.304688 19.03125 -5.753906 19.125 -6.203125 C 19.21875 -6.648438 19.3125 -7.082031 19.40625 -7.5 C 19.507812 -7.925781 19.601562 -8.289062 19.6875 -8.59375 L 22.390625 -18.921875 L 25.625 -18.921875 L 20.3125 0 L 16.953125 0 L 14.15625 -10.125 C 13.9375 -10.96875 13.726562 -11.769531 13.53125 -12.53125 C 13.34375 -13.289062 13.140625 -14.125 12.921875 -15.03125 L 12.859375 -15.03125 C 12.640625 -14.125 12.4375 -13.300781 12.25 -12.5625 C 12.070312 -11.820312 11.875 -11.03125 11.65625 -10.1875 L 8.953125 0 L 5.65625 0 L 0.203125 -18.921875 Z M 3.484375 -18.921875" transform="translate(80.18 52.152)"/></g></g></g><g fill="#FFF" fill-opacity=".4"><g><g><path d="M 2.28125 0 L 2.28125 -18.921875 L 5.5 -18.921875 L 5.5 -11.125 L 13.875 -11.125 L 13.875 -18.921875 L 17.09375 -18.921875 L 17.09375 0 L 13.875 0 L 13.875 -8.46875 L 5.5 -8.46875 L 5.5 0 Z M 2.28125 0" transform="translate(110.527 52.152)"/></g></g></g><g fill="#FFF" fill-opacity=".4"><g><g><path d="M 2.28125 -18.921875 L 14 -18.921875 L 14 -16.34375 L 5.5 -16.34375 L 5.5 -11.125 L 13.21875 -11.125 L 13.21875 -8.5625 L 5.5 -8.5625 L 5.5 -2.578125 L 14.09375 -2.578125 L 14.09375 0 L 2.28125 0 Z M 2.28125 -18.921875" transform="translate(134.415 52.152)"/></g></g></g><g fill="#FFF" fill-opacity=".4"><g><g><path d="M 2.28125 -18.921875 L 8.796875 -18.921875 C 9.804688 -18.921875 10.695312 -18.773438 11.46875 -18.484375 C 12.238281 -18.203125 12.882812 -17.804688 13.40625 -17.296875 C 13.925781 -16.785156 14.316406 -16.175781 14.578125 -15.46875 C 14.835938 -14.769531 14.96875 -14.007812 14.96875 -13.1875 C 14.96875 -12.445312 14.847656 -11.785156 14.609375 -11.203125 C 14.378906 -10.628906 14.082031 -10.125 13.71875 -9.6875 C 13.363281 -9.257812 12.960938 -8.890625 12.515625 -8.578125 C 12.066406 -8.265625 11.609375 -8.019531 11.140625 -7.84375 L 16.015625 0 L 12.375 0 L 8.203125 -7.265625 L 5.40625 -7.265625 L 5.40625 0 L 2.28125 0 Z M 5.40625 -9.828125 L 7.453125 -9.828125 C 8.054688 -9.828125 8.609375 -9.882812 9.109375 -10 C 9.609375 -10.125 10.046875 -10.316406 10.421875 -10.578125 C 10.804688 -10.835938 11.101562 -11.171875 11.3125 -11.578125 C 11.519531 -11.992188 11.625 -12.492188 11.625 -13.078125 C 11.625 -14.191406 11.300781 -15.023438 10.65625 -15.578125 C 10.019531 -16.128906 9.101562 -16.40625 7.90625 -16.40625 L 5.40625 -16.40625 Z M 5.40625 -9.828125" transform="translate(154.127 52.152)"/></g></g></g><g fill="#FFF" fill-opacity=".4"><g><g><path d="M 2.28125 -18.921875 L 14 -18.921875 L 14 -16.34375 L 5.5 -16.34375 L 5.5 -11.125 L 13.21875 -11.125 L 13.21875 -8.5625 L 5.5 -8.5625 L 5.5 -2.578125 L 14.09375 -2.578125 L 14.09375 0 L 2.28125 0 Z M 2.28125 -18.921875" transform="translate(175.1 52.152)"/></g></g></g><g fill="#FFF" fill-opacity=".4"><g><g><path d="M 14.84375 -18.921875 L 14.84375 -16.28125 L 9.140625 -16.28125 L 9.140625 0 L 5.921875 0 L 5.921875 -16.28125 L 0.296875 -16.28125 L 0.296875 -18.921875 Z M 14.84375 -18.921875" transform="translate(206.112 52.152)"/></g></g></g><g fill="#FFF" fill-opacity=".4"><g><g><path d="M 10.453125 -19.234375 C 11.753906 -19.234375 12.957031 -19.019531 14.0625 -18.59375 C 15.164062 -18.175781 16.117188 -17.554688 16.921875 -16.734375 C 17.722656 -15.910156 18.347656 -14.890625 18.796875 -13.671875 C 19.242188 -12.453125 19.46875 -11.050781 19.46875 -9.46875 C 19.46875 -7.90625 19.238281 -6.515625 18.78125 -5.296875 C 18.320312 -4.085938 17.679688 -3.066406 16.859375 -2.234375 C 16.035156 -1.398438 15.066406 -0.769531 13.953125 -0.34375 C 12.847656 0.0820312 11.644531 0.296875 10.34375 0.296875 C 9.039062 0.296875 7.835938 0.0859375 6.734375 -0.328125 C 5.628906 -0.753906 4.675781 -1.375 3.875 -2.1875 C 3.070312 -3.007812 2.445312 -4.023438 2 -5.234375 C 1.550781 -6.453125 1.328125 -7.863281 1.328125 -9.46875 C 1.328125 -11.03125 1.554688 -12.414062 2.015625 -13.625 C 2.472656 -14.832031 3.113281 -15.851562 3.9375 -16.6875 C 4.757812 -17.519531 5.722656 -18.148438 6.828125 -18.578125 C 7.941406 -19.015625 9.148438 -19.234375 10.453125 -19.234375 Z M 4.78125 -9.46875 C 4.78125 -8.238281 4.925781 -7.164062 5.21875 -6.25 C 5.519531 -5.34375 5.925781 -4.585938 6.4375 -3.984375 C 6.957031 -3.390625 7.5625 -2.945312 8.25 -2.65625 C 8.9375 -2.363281 9.671875 -2.21875 10.453125 -2.21875 C 11.234375 -2.21875 11.960938 -2.363281 12.640625 -2.65625 C 13.328125 -2.945312 13.914062 -3.390625 14.40625 -3.984375 C 14.894531 -4.585938 15.285156 -5.34375 15.578125 -6.25 C 15.867188 -7.164062 16.015625 -8.238281 16.015625 -9.46875 C 16.015625 -10.726562 15.863281 -11.8125 15.5625 -12.71875 C 15.257812 -13.632812 14.851562 -14.382812 14.34375 -14.96875 C 13.832031 -15.5625 13.234375 -16 12.546875 -16.28125 C 11.859375 -16.5625 11.125 -16.703125 10.34375 -16.703125 C 9.5625 -16.703125 8.828125 -16.554688 8.140625 -16.265625 C 7.460938 -15.972656 6.878906 -15.523438 6.390625 -14.921875 C 5.898438 -14.328125 5.507812 -13.570312 5.21875 -12.65625 C 4.925781 -11.75 4.78125 -10.6875 4.78125 -9.46875 Z M 4.78125 -9.46875" transform="translate(225.733 52.152)"/></g></g></g><g fill="#FFF" fill-opacity=".4"><g><g><path d="M 2.28125 -18.921875 L 5.5 -18.921875 L 5.5 -2.640625 L 13.4375 -2.640625 L 13.4375 0 L 2.28125 0 Z M 2.28125 -18.921875" transform="translate(262.333 52.152)"/></g></g></g><g fill="#FFF" fill-opacity=".4"><g><g><path d="M 5.5 -18.921875 L 5.5 0 L 2.28125 0 L 2.28125 -18.921875 Z M 5.5 -18.921875" transform="translate(280.662 52.152)"/></g></g></g><g fill="#FFF" fill-opacity=".4"><g><g><path d="M 7.875 -19.234375 C 9.9375 -19.234375 11.738281 -18.851562 13.28125 -18.09375 L 12.53125 -15.53125 C 11.6875 -15.9375 10.910156 -16.234375 10.203125 -16.421875 C 9.492188 -16.609375 8.773438 -16.703125 8.046875 -16.703125 C 6.972656 -16.703125 6.125 -16.472656 5.5 -16.015625 C 4.875 -15.554688 4.5625 -14.914062 4.5625 -14.09375 C 4.5625 -13.375 4.800781 -12.800781 5.28125 -12.375 C 5.769531 -11.957031 6.550781 -11.578125 7.625 -11.234375 L 9.5 -10.640625 C 11.132812 -10.117188 12.332031 -9.390625 13.09375 -8.453125 C 13.863281 -7.523438 14.25 -6.453125 14.25 -5.234375 C 14.25 -4.410156 14.085938 -3.65625 13.765625 -2.96875 C 13.441406 -2.289062 12.984375 -1.710938 12.390625 -1.234375 C 11.804688 -0.753906 11.09375 -0.378906 10.25 -0.109375 C 9.40625 0.160156 8.472656 0.296875 7.453125 0.296875 C 6.429688 0.296875 5.414062 0.203125 4.40625 0.015625 C 3.394531 -0.171875 2.40625 -0.5 1.4375 -0.96875 L 2.1875 -3.484375 C 3.050781 -3.066406 3.894531 -2.75 4.71875 -2.53125 C 5.539062 -2.320312 6.398438 -2.21875 7.296875 -2.21875 C 8.378906 -2.21875 9.257812 -2.445312 9.9375 -2.90625 C 10.625 -3.375 10.96875 -4.054688 10.96875 -4.953125 C 10.96875 -5.597656 10.734375 -6.171875 10.265625 -6.671875 C 9.796875 -7.171875 8.878906 -7.640625 7.515625 -8.078125 L 5.734375 -8.65625 C 4.359375 -9.113281 3.273438 -9.726562 2.484375 -10.5 C 1.691406 -11.269531 1.296875 -12.347656 1.296875 -13.734375 C 1.296875 -15.390625 1.851562 -16.71875 2.96875 -17.71875 C 4.09375 -18.726562 5.726562 -19.234375 7.875 -19.234375 Z M 7.875 -19.234375" transform="translate(292.953 52.152)"/></g></g></g><g fill="#FFF" fill-opacity=".4"><g><g><path d="M 14.84375 -18.921875 L 14.84375 -16.28125 L 9.140625 -16.28125 L 9.140625 0 L 5.921875 0 L 5.921875 -16.28125 L 0.296875 -16.28125 L 0.296875 -18.921875 Z M 14.84375 -18.921875" transform="translate(312.935 52.152)"/></g></g></g><g fill="#FFF" fill-opacity=".4"><g><g><path d="M 2.28125 -18.921875 L 14 -18.921875 L 14 -16.34375 L 5.5 -16.34375 L 5.5 -11.125 L 13.21875 -11.125 L 13.21875 -8.5625 L 5.5 -8.5625 L 5.5 -2.578125 L 14.09375 -2.578125 L 14.09375 0 L 2.28125 0 Z M 2.28125 -18.921875" transform="translate(332.557 52.152)"/></g></g></g><g fill="#FFF" fill-opacity=".4"><g><g><path d="M 2.28125 -18.921875 L 5.140625 -18.921875 L 13.078125 -7.609375 C 13.429688 -7.085938 13.769531 -6.566406 14.09375 -6.046875 C 14.414062 -5.523438 14.6875 -5.050781 14.90625 -4.625 L 14.96875 -4.625 C 14.863281 -6.101562 14.8125 -7.578125 14.8125 -9.046875 C 14.8125 -10.523438 14.8125 -12.015625 14.8125 -13.515625 L 14.8125 -18.921875 L 17.90625 -18.921875 L 17.90625 0 L 15.046875 0 L 7.328125 -10.96875 C 6.953125 -11.507812 6.582031 -12.09375 6.21875 -12.71875 C 5.851562 -13.351562 5.539062 -13.921875 5.28125 -14.421875 L 5.234375 -14.421875 C 5.328125 -12.859375 5.375 -11.3125 5.375 -9.78125 C 5.375 -8.25 5.375 -6.710938 5.375 -5.171875 L 5.375 0 L 2.28125 0 Z M 2.28125 -18.921875" transform="translate(352.269 52.152)"/></g></g></g><g fill="#FFF"><g><g><path d="M 3.484375 -18.921875 L 6.34375 -8.53125 C 6.40625 -8.269531 6.484375 -7.929688 6.578125 -7.515625 C 6.679688 -7.109375 6.773438 -6.679688 6.859375 -6.234375 C 6.953125 -5.785156 7.035156 -5.332031 7.109375 -4.875 C 7.191406 -4.425781 7.265625 -4.023438 7.328125 -3.671875 L 7.390625 -3.671875 C 7.453125 -4.023438 7.519531 -4.425781 7.59375 -4.875 C 7.675781 -5.332031 7.765625 -5.785156 7.859375 -6.234375 C 7.960938 -6.679688 8.066406 -7.101562 8.171875 -7.5 C 8.273438 -7.90625 8.363281 -8.25 8.4375 -8.53125 L 11.421875 -18.921875 L 14.484375 -18.921875 L 17.484375 -8.59375 C 17.566406 -8.351562 17.65625 -8.019531 17.75 -7.59375 C 17.851562 -7.175781 17.953125 -6.738281 18.046875 -6.28125 C 18.148438 -5.820312 18.25 -5.351562 18.34375 -4.875 C 18.4375 -4.40625 18.507812 -4.003906 18.5625 -3.671875 L 18.625 -3.671875 C 18.6875 -4.023438 18.757812 -4.421875 18.84375 -4.859375 C 18.9375 -5.304688 19.03125 -5.753906 19.125 -6.203125 C 19.21875 -6.648438 19.3125 -7.082031 19.40625 -7.5 C 19.507812 -7.925781 19.601562 -8.289062 19.6875 -8.59375 L 22.390625 -18.921875 L 25.625 -18.921875 L 20.3125 0 L 16.953125 0 L 14.15625 -10.125 C 13.9375 -10.96875 13.726562 -11.769531 13.53125 -12.53125 C 13.34375 -13.289062 13.140625 -14.125 12.921875 -15.03125 L 12.859375 -15.03125 C 12.640625 -14.125 12.4375 -13.300781 12.25 -12.5625 C 12.070312 -11.820312 11.875 -11.03125 11.65625 -10.1875 L 8.953125 0 L 5.65625 0 L 0.203125 -18.921875 Z M 3.484375 -18.921875" transform="translate(78.85 50.824)"/></g></g></g><g fill="#FFF"><g><g><path d="M 2.28125 0 L 2.28125 -18.921875 L 5.5 -18.921875 L 5.5 -11.125 L 13.875 -11.125 L 13.875 -18.921875 L 17.09375 -18.921875 L 17.09375 0 L 13.875 0 L 13.875 -8.46875 L 5.5 -8.46875 L 5.5 0 Z M 2.28125 0" transform="translate(109.199 50.824)"/></g></g></g><g fill="#FFF"><g><g><path d="M 2.28125 -18.921875 L 14 -18.921875 L 14 -16.34375 L 5.5 -16.34375 L 5.5 -11.125 L 13.21875 -11.125 L 13.21875 -8.5625 L 5.5 -8.5625 L 5.5 -2.578125 L 14.09375 -2.578125 L 14.09375 0 L 2.28125 0 Z M 2.28125 -18.921875" transform="translate(133.087 50.824)"/></g></g></g><g fill="#FFF"><g><g><path d="M 2.28125 -18.921875 L 8.796875 -18.921875 C 9.804688 -18.921875 10.695312 -18.773438 11.46875 -18.484375 C 12.238281 -18.203125 12.882812 -17.804688 13.40625 -17.296875 C 13.925781 -16.785156 14.316406 -16.175781 14.578125 -15.46875 C 14.835938 -14.769531 14.96875 -14.007812 14.96875 -13.1875 C 14.96875 -12.445312 14.847656 -11.785156 14.609375 -11.203125 C 14.378906 -10.628906 14.082031 -10.125 13.71875 -9.6875 C 13.363281 -9.257812 12.960938 -8.890625 12.515625 -8.578125 C 12.066406 -8.265625 11.609375 -8.019531 11.140625 -7.84375 L 16.015625 0 L 12.375 0 L 8.203125 -7.265625 L 5.40625 -7.265625 L 5.40625 0 L 2.28125 0 Z M 5.40625 -9.828125 L 7.453125 -9.828125 C 8.054688 -9.828125 8.609375 -9.882812 9.109375 -10 C 9.609375 -10.125 10.046875 -10.316406 10.421875 -10.578125 C 10.804688 -10.835938 11.101562 -11.171875 11.3125 -11.578125 C 11.519531 -11.992188 11.625 -12.492188 11.625 -13.078125 C 11.625 -14.191406 11.300781 -15.023438 10.65625 -15.578125 C 10.019531 -16.128906 9.101562 -16.40625 7.90625 -16.40625 L 5.40625 -16.40625 Z M 5.40625 -9.828125" transform="translate(152.799 50.824)"/></g></g></g><g fill="#FFF"><g><g><path d="M 2.28125 -18.921875 L 14 -18.921875 L 14 -16.34375 L 5.5 -16.34375 L 5.5 -11.125 L 13.21875 -11.125 L 13.21875 -8.5625 L 5.5 -8.5625 L 5.5 -2.578125 L 14.09375 -2.578125 L 14.09375 0 L 2.28125 0 Z M 2.28125 -18.921875" transform="translate(173.772 50.824)"/></g></g></g><g fill="#FFF"><g><g><path d="M 14.84375 -18.921875 L 14.84375 -16.28125 L 9.140625 -16.28125 L 9.140625 0 L 5.921875 0 L 5.921875 -16.28125 L 0.296875 -16.28125 L 0.296875 -18.921875 Z M 14.84375 -18.921875" transform="translate(204.783 50.824)"/></g></g></g><g fill="#FFF"><g><g><path d="M 10.453125 -19.234375 C 11.753906 -19.234375 12.957031 -19.019531 14.0625 -18.59375 C 15.164062 -18.175781 16.117188 -17.554688 16.921875 -16.734375 C 17.722656 -15.910156 18.347656 -14.890625 18.796875 -13.671875 C 19.242188 -12.453125 19.46875 -11.050781 19.46875 -9.46875 C 19.46875 -7.90625 19.238281 -6.515625 18.78125 -5.296875 C 18.320312 -4.085938 17.679688 -3.066406 16.859375 -2.234375 C 16.035156 -1.398438 15.066406 -0.769531 13.953125 -0.34375 C 12.847656 0.0820312 11.644531 0.296875 10.34375 0.296875 C 9.039062 0.296875 7.835938 0.0859375 6.734375 -0.328125 C 5.628906 -0.753906 4.675781 -1.375 3.875 -2.1875 C 3.070312 -3.007812 2.445312 -4.023438 2 -5.234375 C 1.550781 -6.453125 1.328125 -7.863281 1.328125 -9.46875 C 1.328125 -11.03125 1.554688 -12.414062 2.015625 -13.625 C 2.472656 -14.832031 3.113281 -15.851562 3.9375 -16.6875 C 4.757812 -17.519531 5.722656 -18.148438 6.828125 -18.578125 C 7.941406 -19.015625 9.148438 -19.234375 10.453125 -19.234375 Z M 4.78125 -9.46875 C 4.78125 -8.238281 4.925781 -7.164062 5.21875 -6.25 C 5.519531 -5.34375 5.925781 -4.585938 6.4375 -3.984375 C 6.957031 -3.390625 7.5625 -2.945312 8.25 -2.65625 C 8.9375 -2.363281 9.671875 -2.21875 10.453125 -2.21875 C 11.234375 -2.21875 11.960938 -2.363281 12.640625 -2.65625 C 13.328125 -2.945312 13.914062 -3.390625 14.40625 -3.984375 C 14.894531 -4.585938 15.285156 -5.34375 15.578125 -6.25 C 15.867188 -7.164062 16.015625 -8.238281 16.015625 -9.46875 C 16.015625 -10.726562 15.863281 -11.8125 15.5625 -12.71875 C 15.257812 -13.632812 14.851562 -14.382812 14.34375 -14.96875 C 13.832031 -15.5625 13.234375 -16 12.546875 -16.28125 C 11.859375 -16.5625 11.125 -16.703125 10.34375 -16.703125 C 9.5625 -16.703125 8.828125 -16.554688 8.140625 -16.265625 C 7.460938 -15.972656 6.878906 -15.523438 6.390625 -14.921875 C 5.898438 -14.328125 5.507812 -13.570312 5.21875 -12.65625 C 4.925781 -11.75 4.78125 -10.6875 4.78125 -9.46875 Z M 4.78125 -9.46875" transform="translate(224.405 50.824)"/></g></g></g><g fill="#FFF"><g><g><path d="M 2.28125 -18.921875 L 5.5 -18.921875 L 5.5 -2.640625 L 13.4375 -2.640625 L 13.4375 0 L 2.28125 0 Z M 2.28125 -18.921875" transform="translate(261.004 50.824)"/></g></g></g><g fill="#FFF"><g><g><path d="M 5.5 -18.921875 L 5.5 0 L 2.28125 0 L 2.28125 -18.921875 Z M 5.5 -18.921875" transform="translate(279.334 50.824)"/></g></g></g><g fill="#FFF"><g><g><path d="M 7.875 -19.234375 C 9.9375 -19.234375 11.738281 -18.851562 13.28125 -18.09375 L 12.53125 -15.53125 C 11.6875 -15.9375 10.910156 -16.234375 10.203125 -16.421875 C 9.492188 -16.609375 8.773438 -16.703125 8.046875 -16.703125 C 6.972656 -16.703125 6.125 -16.472656 5.5 -16.015625 C 4.875 -15.554688 4.5625 -14.914062 4.5625 -14.09375 C 4.5625 -13.375 4.800781 -12.800781 5.28125 -12.375 C 5.769531 -11.957031 6.550781 -11.578125 7.625 -11.234375 L 9.5 -10.640625 C 11.132812 -10.117188 12.332031 -9.390625 13.09375 -8.453125 C 13.863281 -7.523438 14.25 -6.453125 14.25 -5.234375 C 14.25 -4.410156 14.085938 -3.65625 13.765625 -2.96875 C 13.441406 -2.289062 12.984375 -1.710938 12.390625 -1.234375 C 11.804688 -0.753906 11.09375 -0.378906 10.25 -0.109375 C 9.40625 0.160156 8.472656 0.296875 7.453125 0.296875 C 6.429688 0.296875 5.414062 0.203125 4.40625 0.015625 C 3.394531 -0.171875 2.40625 -0.5 1.4375 -0.96875 L 2.1875 -3.484375 C 3.050781 -3.066406 3.894531 -2.75 4.71875 -2.53125 C 5.539062 -2.320312 6.398438 -2.21875 7.296875 -2.21875 C 8.378906 -2.21875 9.257812 -2.445312 9.9375 -2.90625 C 10.625 -3.375 10.96875 -4.054688 10.96875 -4.953125 C 10.96875 -5.597656 10.734375 -6.171875 10.265625 -6.671875 C 9.796875 -7.171875 8.878906 -7.640625 7.515625 -8.078125 L 5.734375 -8.65625 C 4.359375 -9.113281 3.273438 -9.726562 2.484375 -10.5 C 1.691406 -11.269531 1.296875 -12.347656 1.296875 -13.734375 C 1.296875 -15.390625 1.851562 -16.71875 2.96875 -17.71875 C 4.09375 -18.726562 5.726562 -19.234375 7.875 -19.234375 Z M 7.875 -19.234375" transform="translate(291.625 50.824)"/></g></g></g><g fill="#FFF"><g><g><path d="M 14.84375 -18.921875 L 14.84375 -16.28125 L 9.140625 -16.28125 L 9.140625 0 L 5.921875 0 L 5.921875 -16.28125 L 0.296875 -16.28125 L 0.296875 -18.921875 Z M 14.84375 -18.921875" transform="translate(311.607 50.824)"/></g></g></g><g fill="#FFF"><g><g><path d="M 2.28125 -18.921875 L 14 -18.921875 L 14 -16.34375 L 5.5 -16.34375 L 5.5 -11.125 L 13.21875 -11.125 L 13.21875 -8.5625 L 5.5 -8.5625 L 5.5 -2.578125 L 14.09375 -2.578125 L 14.09375 0 L 2.28125 0 Z M 2.28125 -18.921875" transform="translate(331.229 50.824)"/></g></g></g><g fill="#FFF"><g><g><path d="M 2.28125 -18.921875 L 5.140625 -18.921875 L 13.078125 -7.609375 C 13.429688 -7.085938 13.769531 -6.566406 14.09375 -6.046875 C 14.414062 -5.523438 14.6875 -5.050781 14.90625 -4.625 L 14.96875 -4.625 C 14.863281 -6.101562 14.8125 -7.578125 14.8125 -9.046875 C 14.8125 -10.523438 14.8125 -12.015625 14.8125 -13.515625 L 14.8125 -18.921875 L 17.90625 -18.921875 L 17.90625 0 L 15.046875 0 L 7.328125 -10.96875 C 6.953125 -11.507812 6.582031 -12.09375 6.21875 -12.71875 C 5.851562 -13.351562 5.539062 -13.921875 5.28125 -14.421875 L 5.234375 -14.421875 C 5.328125 -12.859375 5.375 -11.3125 5.375 -9.78125 C 5.375 -8.25 5.375 -6.710938 5.375 -5.171875 L 5.375 0 L 2.28125 0 Z M 2.28125 -18.921875" transform="translate(350.94 50.824)"/></g></g></g></svg>