<svg xmlns="http://www.w3.org/2000/svg" xmlns:xlink="http://www.w3.org/1999/xlink" width="500" zoomAndPan="magnify" viewBox="0 0 375 374.999991" height="500" preserveAspectRatio="xMidYMid meet" version="1.0"><defs><g/></defs><rect x="-37.5" width="450" fill="#ffffff" y="-37.499999" height="449.999989" fill-opacity="1"/><rect x="-37.5" width="450" fill="#ffffff" y="-37.499999" height="449.999989" fill-opacity="1"/><rect x="-37.5" width="450" fill="#ffffff" y="-37.499999" height="449.999989" fill-opacity="1"/><rect x="-37.5" width="450" fill="#ffffff" y="-37.499999" height="449.999989" fill-opacity="1"/><g fill="#000000" fill-opacity="1"><g transform="translate(35.865237, 230.999985)"><g><path d="M 15.921875 -84.03125 L 5.796875 -85.515625 L 5.796875 -91.671875 L 68.609375 -91.671875 L 70.328125 -72.546875 L 63.296875 -72.546875 L 59.71875 -84.515625 L 29.125 -85.265625 L 29.125 -50.46875 L 49.71875 -50.84375 L 51.453125 -61.078125 L 58.234375 -61.078125 L 58.234375 -32.703125 L 51.453125 -32.703125 L 49.71875 -43.3125 L 29.125 -43.6875 L 29.125 -6.90625 L 63.921875 -8.140625 L 70.453125 -23.6875 L 77.734375 -21.46875 L 74.15625 0 L 5.671875 0 L 5.671875 -6.046875 L 15.921875 -7.28125 Z M 15.921875 -84.03125 "/></g></g></g><g fill="#000000" fill-opacity="1"><g transform="translate(116.190042, 230.999985)"><g><path d="M 72.3125 -36.640625 C 72.3125 -29.648438 70.867188 -23.253906 67.984375 -17.453125 C 65.109375 -11.660156 60.992188 -7.078125 55.640625 -3.703125 C 50.296875 -0.328125 44.046875 1.359375 36.890625 1.359375 C 34.921875 1.359375 32.78125 1.191406 30.46875 0.859375 C 28.164062 0.535156 26.316406 0.125 24.921875 -0.375 L 25.296875 10 L 25.296875 22.453125 L 38.125 23.8125 L 38.125 29.859375 L 3.703125 29.859375 L 3.703125 23.8125 L 12.578125 22.453125 L 12.578125 -58.984375 L 3.578125 -61.203125 L 3.578125 -67.859375 L 21.09375 -70.078125 L 21.34375 -70.078125 L 23.9375 -67.859375 L 23.9375 -60.578125 C 26.40625 -63.296875 29.46875 -65.597656 33.125 -67.484375 C 36.789062 -69.378906 40.882812 -70.328125 45.40625 -70.328125 C 50.257812 -70.328125 54.722656 -69.132812 58.796875 -66.75 C 62.867188 -64.363281 66.140625 -60.660156 68.609375 -55.640625 C 71.078125 -50.628906 72.3125 -44.296875 72.3125 -36.640625 Z M 40.34375 -61.703125 C 37.21875 -61.703125 34.296875 -61.039062 31.578125 -59.71875 C 28.867188 -58.40625 26.773438 -56.96875 25.296875 -55.40625 L 25.296875 -8.890625 C 25.867188 -7.898438 27.328125 -7.015625 29.671875 -6.234375 C 32.015625 -5.453125 34.585938 -5.0625 37.390625 -5.0625 C 43.722656 -5.0625 48.84375 -7.566406 52.75 -12.578125 C 56.65625 -17.597656 58.609375 -25.171875 58.609375 -35.296875 C 58.609375 -44.171875 56.898438 -50.789062 53.484375 -55.15625 C 50.078125 -59.519531 45.695312 -61.703125 40.34375 -61.703125 Z M 40.34375 -61.703125 "/></g></g></g><g fill="#000000" fill-opacity="1"><g transform="translate(193.676952, 230.999985)"><g><path d="M 15.671875 1.234375 C 13.535156 1.234375 11.6875 0.492188 10.125 -0.984375 C 8.5625 -2.460938 7.78125 -4.351562 7.78125 -6.65625 C 7.78125 -9.207031 8.703125 -11.347656 10.546875 -13.078125 C 12.398438 -14.804688 14.5625 -15.671875 17.03125 -15.671875 C 19.582031 -15.671875 21.535156 -14.910156 22.890625 -13.390625 C 24.242188 -11.867188 24.921875 -10 24.921875 -7.78125 C 24.921875 -5.0625 24.015625 -2.878906 22.203125 -1.234375 C 20.398438 0.410156 18.222656 1.234375 15.671875 1.234375 Z M 15.671875 1.234375 "/></g></g></g><g fill="#000000" fill-opacity="1"><g transform="translate(255.617121, 230.999985)"><g><path d="M 23.203125 -63.671875 C 21.472656 -63.015625 18.753906 -62.234375 15.046875 -61.328125 C 11.347656 -60.421875 8.347656 -59.800781 6.046875 -59.46875 L 4.8125 -66.390625 C 9.007812 -67.285156 13.304688 -68.800781 17.703125 -70.9375 C 22.109375 -73.082031 25.789062 -75.429688 28.75 -77.984375 L 28.875 -77.984375 L 36.40625 -76.75 L 36.40625 -7.15625 L 51.703125 -6.046875 L 51.703125 0 L 7.28125 0 L 7.28125 -6.046875 L 23.203125 -7.15625 Z M 23.203125 -63.671875 "/></g></g></g></svg>