<svg xmlns="http://www.w3.org/2000/svg" xmlns:xlink="http://www.w3.org/1999/xlink" width="500" zoomAndPan="magnify" viewBox="0 0 375 374.999991" height="500" preserveAspectRatio="xMidYMid meet" version="1.0"><defs><g/></defs><rect x="-37.5" width="450" fill="#ffffff" y="-37.499999" height="449.999989" fill-opacity="1"/><rect x="-37.5" width="450" fill="#ffffff" y="-37.499999" height="449.999989" fill-opacity="1"/><rect x="-37.5" width="450" fill="#ffffff" y="-37.499999" height="449.999989" fill-opacity="1"/><rect x="-37.5" width="450" fill="#ffffff" y="-37.499999" height="449.999989" fill-opacity="1"/><g fill="#000000" fill-opacity="1"><g transform="translate(43.072267, 230.999985)"><g><path d="M 15.921875 -84.03125 L 5.796875 -85.515625 L 5.796875 -91.671875 L 68.609375 -91.671875 L 70.328125 -72.546875 L 63.296875 -72.546875 L 59.71875 -84.515625 L 29.125 -85.265625 L 29.125 -50.46875 L 49.71875 -50.84375 L 51.453125 -61.078125 L 58.234375 -61.078125 L 58.234375 -32.703125 L 51.453125 -32.703125 L 49.71875 -43.3125 L 29.125 -43.6875 L 29.125 -6.90625 L 63.921875 -8.140625 L 70.453125 -23.6875 L 77.734375 -21.46875 L 74.15625 0 L 5.671875 0 L 5.671875 -6.046875 L 15.921875 -7.28125 Z M 15.921875 -84.03125 "/></g></g></g><g fill="#000000" fill-opacity="1"><g transform="translate(123.397072, 230.999985)"><g><path d="M 72.3125 -36.640625 C 72.3125 -29.648438 70.867188 -23.253906 67.984375 -17.453125 C 65.109375 -11.660156 60.992188 -7.078125 55.640625 -3.703125 C 50.296875 -0.328125 44.046875 1.359375 36.890625 1.359375 C 34.921875 1.359375 32.78125 1.191406 30.46875 0.859375 C 28.164062 0.535156 26.316406 0.125 24.921875 -0.375 L 25.296875 10 L 25.296875 22.453125 L 38.125 23.8125 L 38.125 29.859375 L 3.703125 29.859375 L 3.703125 23.8125 L 12.578125 22.453125 L 12.578125 -58.984375 L 3.578125 -61.203125 L 3.578125 -67.859375 L 21.09375 -70.078125 L 21.34375 -70.078125 L 23.9375 -67.859375 L 23.9375 -60.578125 C 26.40625 -63.296875 29.46875 -65.597656 33.125 -67.484375 C 36.789062 -69.378906 40.882812 -70.328125 45.40625 -70.328125 C 50.257812 -70.328125 54.722656 -69.132812 58.796875 -66.75 C 62.867188 -64.363281 66.140625 -60.660156 68.609375 -55.640625 C 71.078125 -50.628906 72.3125 -44.296875 72.3125 -36.640625 Z M 40.34375 -61.703125 C 37.21875 -61.703125 34.296875 -61.039062 31.578125 -59.71875 C 28.867188 -58.40625 26.773438 -56.96875 25.296875 -55.40625 L 25.296875 -8.890625 C 25.867188 -7.898438 27.328125 -7.015625 29.671875 -6.234375 C 32.015625 -5.453125 34.585938 -5.0625 37.390625 -5.0625 C 43.722656 -5.0625 48.84375 -7.566406 52.75 -12.578125 C 56.65625 -17.597656 58.609375 -25.171875 58.609375 -35.296875 C 58.609375 -44.171875 56.898438 -50.789062 53.484375 -55.15625 C 50.078125 -59.519531 45.695312 -61.703125 40.34375 -61.703125 Z M 40.34375 -61.703125 "/></g></g></g><g fill="#000000" fill-opacity="1"><g transform="translate(200.883982, 230.999985)"><g><path d="M 15.671875 1.234375 C 13.535156 1.234375 11.6875 0.492188 10.125 -0.984375 C 8.5625 -2.460938 7.78125 -4.351562 7.78125 -6.65625 C 7.78125 -9.207031 8.703125 -11.347656 10.546875 -13.078125 C 12.398438 -14.804688 14.5625 -15.671875 17.03125 -15.671875 C 19.582031 -15.671875 21.535156 -14.910156 22.890625 -13.390625 C 24.242188 -11.867188 24.921875 -10 24.921875 -7.78125 C 24.921875 -5.0625 24.015625 -2.878906 22.203125 -1.234375 C 20.398438 0.410156 18.222656 1.234375 15.671875 1.234375 Z M 15.671875 1.234375 "/></g></g></g><g fill="#000000" fill-opacity="1"><g transform="translate(262.824152, 230.999985)"><g><path d="M 19.375 19.859375 C 17.476562 19.859375 15.378906 19.710938 13.078125 19.421875 C 10.773438 19.140625 8.84375 18.796875 7.28125 18.390625 L 7.28125 11.359375 C 10 12.171875 13.25 12.578125 17.03125 12.578125 C 23.53125 12.578125 29.144531 11.550781 33.875 9.5 C 38.601562 7.445312 42.222656 4.648438 44.734375 1.109375 C 47.242188 -2.421875 48.5 -6.285156 48.5 -10.484375 C 48.5 -16.078125 46.789062 -20.414062 43.375 -23.5 C 39.957031 -26.59375 34.710938 -28.175781 27.640625 -28.25 L 23.8125 -27.265625 C 21.101562 -26.441406 19.785156 -26.070312 19.859375 -26.15625 L 17.765625 -32.703125 C 21.222656 -33.359375 24.472656 -34.34375 27.515625 -35.65625 C 32.617188 -37.800781 36.734375 -40.660156 39.859375 -44.234375 C 42.984375 -47.816406 44.546875 -51.625 44.546875 -55.65625 C 44.546875 -60.34375 43.164062 -63.773438 40.40625 -65.953125 C 37.65625 -68.128906 34.140625 -69.21875 29.859375 -69.21875 C 26.160156 -69.21875 22.601562 -68.5625 19.1875 -67.25 C 15.769531 -65.9375 12.828125 -64.332031 10.359375 -62.4375 L 7.03125 -67.984375 C 9.332031 -70.285156 13.015625 -72.523438 18.078125 -74.703125 C 23.140625 -76.890625 28.300781 -77.984375 33.5625 -77.984375 C 41.050781 -77.984375 47.097656 -76.359375 51.703125 -73.109375 C 56.304688 -69.859375 58.609375 -64.898438 58.609375 -58.234375 C 58.609375 -52.398438 56.304688 -47.097656 51.703125 -42.328125 C 47.097656 -37.554688 41.628906 -34.054688 35.296875 -31.828125 C 36.117188 -31.910156 37.269531 -31.953125 38.75 -31.953125 C 43.601562 -31.953125 47.878906 -31.046875 51.578125 -29.234375 C 55.273438 -27.429688 58.128906 -24.988281 60.140625 -21.90625 C 62.160156 -18.820312 63.171875 -15.34375 63.171875 -11.46875 C 63.171875 -5.46875 61.359375 -0.0820312 57.734375 4.6875 C 54.117188 9.457031 49 13.175781 42.375 15.84375 C 35.757812 18.519531 28.09375 19.859375 19.375 19.859375 Z M 19.375 19.859375 "/></g></g></g></svg>